<svg version="1.1" id="Layer_1" xmlns="http://www.w3.org/2000/svg" xmlns:xlink="http://www.w3.org/1999/xlink" x="0px" y="0px"
	 width="100%" viewBox="0 0 417 379" enable-background="new 0 0 417 379" xml:space="preserve">
<path fill="#000000" opacity="1.000000" stroke="none" 
	d="
M213.000000,0.999999 
	C281.314575,1.000000 349.629150,1.000000 417.971863,1.000000 
	C417.971863,127.279892 417.971863,253.559784 417.971863,379.919861 
	C279.091614,379.919861 140.183197,379.919861 1.137377,379.919861 
	C1.137377,253.666763 1.137377,127.333405 1.137377,1.000000 
	C69.768822,1.000000 138.416565,1.000000 207.850601,1.250569 
	C201.803436,8.121993 195.445145,15.337257 188.046860,21.251564 
	C166.378799,38.573380 141.727280,49.372063 114.095276,53.004524 
	C111.529846,53.341766 109.817459,54.106773 109.957314,57.269230 
	C110.404106,67.372154 110.514656,77.490479 111.002174,87.590935 
	C111.839874,104.946167 116.411469,121.503006 122.024452,137.834595 
	C129.214172,158.753876 140.222534,177.490494 154.702667,194.102310 
	C163.624954,204.338104 174.283493,212.707352 186.358871,218.972809 
	C194.197296,223.039856 202.299622,227.872482 211.406876,226.741959 
	C218.384186,225.875839 225.399139,223.385345 231.825043,220.389648 
	C247.133911,213.252716 259.513031,202.309830 270.308563,189.324356 
	C281.806854,175.493607 290.937958,160.279144 296.825958,143.419250 
	C301.660156,129.576797 305.326050,115.283463 308.741669,101.006195 
	C310.499786,93.657204 310.582001,85.907257 311.481201,77.800110 
	C303.884888,77.800110 297.618561,77.800110 290.876587,77.800110 
	C290.876587,69.760605 291.075195,62.126423 290.735046,54.516319 
	C290.651398,52.645691 289.154877,49.604050 287.726135,49.209961 
	C259.193909,41.339901 235.140732,26.301352 215.149139,4.613257 
	C214.219833,3.605099 213.706863,2.213188 213.000000,0.999999 
M318.576721,261.001831 
	C317.388489,261.889862 315.196655,262.747070 315.168304,263.670685 
	C314.904266,272.272308 315.012024,280.885284 315.012024,289.646362 
	C318.913208,289.646362 322.282623,289.646362 325.999268,289.646362 
	C325.999268,285.658386 325.760101,281.999847 326.071960,278.388916 
	C326.340973,275.273773 324.637909,271.558533 327.382935,269.008850 
	C327.936096,269.074066 328.489258,269.139282 329.042419,269.204529 
	C329.042419,276.065582 329.042419,282.926666 329.042419,289.698120 
	C333.046661,289.698120 336.305878,289.698120 340.117706,289.698120 
	C340.117706,282.681458 340.117706,275.948975 340.117706,269.216003 
	C341.176788,269.216003 342.097870,269.184540 342.100494,269.220459 
	C342.599976,276.030914 343.034302,282.846161 343.476593,289.749969 
	C346.945679,289.749969 350.201630,289.749969 353.968750,289.749969 
	C353.968750,282.568024 354.685760,275.526337 353.760254,268.707581 
	C352.893463,262.321320 352.019745,260.557251 344.856506,261.059418 
	C342.648895,261.214172 340.468994,262.590393 338.313232,262.502655 
	C332.028564,262.246887 325.762482,261.533875 318.576721,261.001831 
M296.412079,53.553856 
	C296.410431,58.547855 296.221588,63.553986 296.543854,68.527000 
	C296.620636,69.712341 298.371796,71.726761 299.408600,71.762985 
	C307.222931,72.035988 315.053284,71.996651 322.872559,71.805542 
	C323.921875,71.779900 325.815216,70.379501 325.833801,69.581146 
	C326.045349,60.500313 325.968140,51.412762 325.968140,42.347488 
	C315.904724,42.347488 306.517273,42.347488 296.412140,42.347488 
	C296.412140,45.993565 296.412140,49.286236 296.412079,53.553856 
M82.152641,252.002686 
	C79.824409,252.005737 77.472557,251.798904 75.173103,252.057693 
	C71.022491,252.524826 66.781616,253.357635 66.277084,258.591705 
	C65.929276,262.199921 65.898987,265.910461 66.331985,269.502319 
	C66.778191,273.203766 69.198517,275.194336 73.156296,275.017975 
	C75.604210,274.908905 78.060944,274.997742 80.706894,274.997742 
	C80.706894,277.573669 80.706894,279.637512 80.706894,281.701385 
	C80.301613,281.975555 79.896324,282.249756 79.491043,282.523926 
	C78.250862,281.160248 77.010681,279.796570 75.657196,278.308289 
	C72.821754,278.308289 69.553253,278.308289 66.320328,278.308289 
	C65.701469,285.468079 67.994072,289.772644 72.582176,289.953278 
	C77.231438,290.136322 81.902771,290.170990 86.546982,289.931793 
	C89.929649,289.757538 91.958893,287.772766 91.989944,284.186340 
	C92.017303,281.026825 91.959442,277.866272 92.007828,274.707245 
	C92.076286,270.236603 89.996124,267.942383 85.448532,267.994385 
	C83.453850,268.017181 81.178757,268.544861 79.552925,267.760895 
	C78.286354,267.150177 77.480247,264.935150 77.148209,263.295654 
	C76.968475,262.408203 78.209740,261.232971 78.809967,260.187561 
	C79.581329,261.437134 80.352524,262.686768 81.124191,263.936157 
	C81.283646,264.194366 81.444878,264.451477 81.538086,264.601135 
	C85.024757,264.601135 88.414993,264.601135 91.768761,264.601135 
	C92.386223,255.005035 92.109657,254.619720 82.152641,252.002686 
M42.206539,289.944702 
	C47.205845,289.961670 52.205349,290.012787 57.204395,289.984070 
	C60.788967,289.963470 62.730175,287.914673 62.941109,284.510864 
	C63.167442,280.858490 63.040741,277.180359 62.978397,273.515015 
	C62.917431,269.930634 61.009060,268.073395 57.428902,268.016052 
	C54.680958,267.972015 51.931744,268.007324 48.913185,268.007324 
	C49.059208,264.817749 49.166840,262.466827 49.274467,260.115906 
	C49.795322,260.016907 50.316181,259.917908 50.837036,259.818939 
	C51.496304,261.489349 52.155571,263.159760 52.749279,264.664062 
	C56.159435,264.664062 59.421169,264.664062 62.617176,264.664062 
	C64.103340,255.185532 62.078419,253.434387 55.328545,252.136368 
	C46.493305,250.437302 38.585949,252.806000 38.247150,257.010498 
	C37.840248,262.060150 37.408474,267.599518 39.041317,272.197449 
	C41.082237,277.944489 47.820648,273.265320 52.053677,275.840790 
	C51.943913,277.858887 51.834206,279.875824 51.724503,281.892761 
	C51.240292,282.005951 50.756077,282.119141 50.271862,282.232330 
	C49.563808,280.892120 48.855755,279.551910 48.204983,278.320129 
	C44.879902,278.320129 41.616367,278.320129 38.184761,278.320129 
	C37.993038,282.709869 36.866150,286.983337 42.206539,289.944702 
M134.760696,252.008438 
	C133.842773,253.001175 132.224030,253.933945 132.133057,254.997406 
	C131.808258,258.794678 132.000610,262.636292 132.000092,266.461121 
	C131.999008,274.208801 131.999771,281.956482 131.999771,289.735535 
	C135.982544,289.735535 139.237732,289.735535 143.085571,289.735535 
	C143.085571,285.770142 143.085571,282.046661 143.085571,278.636536 
	C143.829285,278.287537 143.971313,278.164825 144.116364,278.161133 
	C146.607132,278.098114 149.098694,278.064789 151.589233,277.994965 
	C156.711304,277.851379 158.857742,275.829041 158.978409,270.845551 
	C159.070953,267.023010 159.191757,263.182770 158.930923,259.375671 
	C158.704803,256.075287 157.472931,253.213882 153.459518,252.981384 
	C147.546997,252.638870 141.632721,252.326675 134.760696,252.008438 
M381.005676,286.352631 
	C381.380615,284.390839 381.755585,282.429016 382.435974,278.869110 
	C376.489258,280.371796 371.946747,281.519653 367.335083,282.684967 
	C367.335083,281.112091 367.335083,279.729645 367.335083,277.766296 
	C372.362091,277.766296 377.089417,277.766296 381.997528,277.766296 
	C381.997528,274.526031 382.064911,271.869873 381.984131,269.218170 
	C381.789948,262.843079 379.932617,261.041931 373.611206,261.004150 
	C370.285706,260.984283 366.943359,260.796295 363.638519,261.059479 
	C359.661438,261.376221 356.740234,262.908386 356.951202,267.776306 
	C357.174164,272.921417 357.055084,278.084473 356.984955,283.238312 
	C356.924133,287.706665 358.932831,290.033020 363.496368,290.003326 
	C367.320740,289.978455 371.181793,290.311371 374.955353,289.872772 
	C377.012512,289.633667 378.921478,288.119568 381.005676,286.352631 
M221.053589,283.811401 
	C222.324814,288.812347 225.553879,290.669708 230.594193,290.048096 
	C232.888214,289.765167 235.246094,290.002747 237.574997,289.999512 
	C245.241974,289.988831 246.851456,288.004700 245.261490,279.796204 
	C242.294144,280.080383 239.224609,280.216400 236.220428,280.732758 
	C234.845200,280.969116 233.598618,281.953979 232.293686,282.599365 
	C231.829208,281.248047 231.364731,279.896729 230.626221,277.748138 
	C236.346344,277.748138 241.072815,277.748138 245.753021,277.748138 
	C246.388885,261.981049 247.725967,260.559174 230.821243,260.998901 
	C230.488770,261.007538 230.155884,260.999084 229.823181,261.000366 
	C223.173492,261.026428 221.077957,263.126678 221.009048,269.947968 
	C220.965347,274.272583 221.007370,278.598053 221.053589,283.811401 
M268.474609,287.905273 
	C274.785492,291.671204 281.527588,290.057526 288.122467,289.227661 
	C289.235779,289.087555 290.896057,287.080536 290.961823,285.863556 
	C291.322601,279.188599 291.412537,272.488373 291.291046,265.802368 
	C291.228241,262.344391 288.615509,261.121216 285.539703,261.035187 
	C281.555664,260.923737 277.468323,260.483246 273.615631,261.202728 
	C271.296997,261.635712 267.610413,263.907379 267.518524,265.522339 
	C267.110046,272.702057 267.777679,279.942993 268.474609,287.905273 
M199.224625,261.214020 
	C193.349152,261.144714 187.471771,260.956421 181.598953,261.051208 
	C178.139420,261.107056 176.109009,263.165649 176.039597,266.648254 
	C175.920578,272.621063 175.664886,278.629395 176.207092,284.555084 
	C176.381577,286.462097 178.757751,289.554474 180.348907,289.701599 
	C186.758560,290.294312 193.255112,289.947144 199.827576,289.947144 
	C199.827576,280.135681 199.827576,271.029205 199.224625,261.214020 
M334.523621,102.996712 
	C347.003906,102.996696 347.003906,102.996696 347.003510,90.358185 
	C347.003510,90.191742 347.005798,90.025261 347.003174,89.858864 
	C346.825562,78.563759 348.460236,80.095604 337.240265,80.019920 
	C324.022827,79.930763 323.952087,79.998726 324.045319,93.418701 
	C324.121277,104.353233 322.563751,102.824211 334.523621,102.996712 
M102.546356,251.999924 
	C99.453590,251.999924 96.360825,251.999924 93.257019,251.999924 
	C93.257019,254.974655 93.257019,257.237030 93.257019,259.699310 
	C95.878159,259.918610 98.267662,260.118530 101.195099,260.363464 
	C101.195099,270.363525 101.195099,280.069122 101.195099,289.710785 
	C104.696724,289.710785 107.619789,289.710785 111.098358,289.710785 
	C111.098358,279.728882 111.098358,270.021271 111.098358,260.200378 
	C114.053391,260.031891 116.448433,259.895325 118.687973,259.767639 
	C118.687973,256.916901 118.687973,254.662781 118.687973,251.999924 
	C113.434166,251.999924 108.481796,251.999924 102.546356,251.999924 
M250.999908,280.481201 
	C250.999908,283.564758 250.999908,286.648346 250.999908,289.731506 
	C254.661469,289.731506 257.581268,289.731506 261.043610,289.731506 
	C261.043610,282.761261 261.043610,276.039856 261.043610,269.433960 
	C262.993469,269.068512 264.391907,268.806427 265.757751,268.550446 
	C265.757751,265.963959 265.757751,263.693695 265.757751,261.472839 
	C264.063965,261.080139 262.607025,260.742340 261.150085,260.404541 
	C261.156616,260.123413 261.163177,259.842255 261.169708,259.561127 
	C262.754486,259.178650 264.339294,258.796204 265.654114,258.478882 
	C265.654114,255.825867 265.654114,253.581833 265.654114,250.617752 
	C261.553711,251.093109 257.125366,250.416443 254.373444,252.252487 
	C251.488525,254.177261 250.084625,258.446014 248.307693,261.834198 
	C247.750015,262.897491 247.684479,264.568665 248.095444,265.708618 
	C248.719025,267.438354 250.520859,268.853363 250.805603,270.570587 
	C251.288116,273.480530 250.977264,276.522034 250.999908,280.481201 
M261.989655,337.357727 
	C261.051483,335.289612 260.574860,331.987915 259.073090,331.426025 
	C256.444305,330.442444 253.172989,330.986755 250.200897,331.241394 
	C249.444199,331.306244 248.225067,332.668610 248.197784,333.468231 
	C248.017548,338.749603 248.104645,344.040100 248.104645,350.475708 
	C250.958420,349.573090 252.949921,348.943207 254.869461,348.336090 
	C256.422363,348.816681 258.285828,349.651672 260.231232,349.947296 
	C266.204193,350.854980 272.161224,346.373199 278.206116,349.808258 
	C278.436310,349.939087 279.032990,349.424927 279.736969,349.071869 
	C278.515686,344.261719 277.545746,339.385468 275.941986,334.727448 
	C275.417206,333.203247 273.422607,331.658783 271.785370,331.162750 
	C269.084167,330.344421 267.607117,332.073120 266.993500,334.798157 
	C265.959991,339.387756 264.687408,343.923553 263.476562,348.632904 
	C258.168304,345.391754 261.878601,341.613159 261.989655,337.357727 
M202.007477,266.330017 
	C205.712769,269.580963 204.961777,273.961212 204.998642,278.140961 
	C205.005981,278.972778 204.994217,279.804749 205.000824,280.636597 
	C205.069138,289.242065 209.231827,291.699402 219.760437,289.296631 
	C219.760437,287.038757 219.760437,284.767578 219.760437,282.496399 
	C219.316422,282.653076 218.872391,282.809723 218.428375,282.966400 
	C217.619507,281.476410 215.982468,279.877289 216.161667,278.517548 
	C216.641815,274.874084 213.165543,269.587494 219.959732,268.205414 
	C219.607620,265.038422 221.890015,260.823334 216.225021,260.449524 
	C216.039703,258.620087 215.877304,257.016937 215.706940,255.335098 
	C212.037811,255.335098 208.638885,255.335098 205.524231,255.335098 
	C205.013412,257.420074 204.720428,259.169830 204.141785,260.819366 
	C203.581558,262.416412 202.727478,263.910339 202.007477,266.330017 
M163.765854,251.042725 
	C163.208435,251.522263 162.167740,251.998291 162.164246,252.481827 
	C162.074753,264.860046 162.093613,277.238983 162.093613,289.599792 
	C166.025803,289.599792 169.386246,289.599792 172.576248,289.599792 
	C172.576248,276.527222 172.576248,263.858612 172.576248,251.009445 
	C169.669830,251.009445 167.185654,251.009445 163.765854,251.042725 
M347.004333,65.154335 
	C346.796661,67.895416 348.030701,69.101273 350.808350,69.025757 
	C354.628906,68.921867 358.456329,68.922714 362.277039,69.023193 
	C365.114380,69.097816 366.093201,67.761719 366.024963,65.071884 
	C365.919647,60.918701 366.184235,56.746845 365.876587,52.613819 
	C365.785675,51.392601 364.352295,49.321751 363.437775,49.267616 
	C358.051453,48.948776 352.636719,49.110714 347.000519,49.110714 
	C347.000519,54.594547 347.000519,59.403233 347.004333,65.154335 
M296.804749,289.791534 
	C299.737091,289.791534 302.669403,289.791534 306.000122,289.791534 
	C306.000122,285.573029 306.195068,281.762360 305.951996,277.979889 
	C305.630402,272.976135 306.090332,268.859650 312.623138,269.729706 
	C312.623138,266.276276 312.623138,263.243073 312.623138,261.226868 
	C306.913696,261.226868 301.621826,261.226868 296.180084,261.226868 
	C296.180084,270.831055 296.180084,279.962616 296.804749,289.791534 
M147.122986,346.418823 
	C148.363480,349.072510 149.974716,350.968231 153.886749,349.125427 
	C153.886749,344.010986 153.969910,338.579681 153.784470,333.157562 
	C153.760529,332.457306 152.370590,331.309906 151.568893,331.270264 
	C150.781357,331.231354 149.630112,332.176178 149.197021,332.987488 
	C148.679031,333.957825 148.753616,335.244568 148.571548,336.394257 
	C146.828369,332.600311 145.278015,329.418976 140.039276,332.017975 
	C140.039276,336.930145 139.872543,341.892029 140.169617,346.826019 
	C140.234772,347.908386 141.884369,349.610748 142.925674,349.706390 
	C143.861786,349.792389 144.981903,348.082367 145.984375,347.126343 
	C146.334213,346.792755 146.575226,346.345062 147.122986,346.418823 
M215.951218,333.921722 
	C214.741486,332.988129 213.531754,332.054535 212.322021,331.120941 
	C211.559830,332.174500 210.217621,333.187469 210.140579,334.288940 
	C209.874374,338.095978 209.788162,341.961426 210.187637,345.746094 
	C210.341309,347.201965 211.716965,349.326233 212.989792,349.735992 
	C220.731461,352.228577 223.992462,349.701874 223.997864,341.653961 
	C223.999298,339.491119 224.353775,337.241394 223.864944,335.194244 
	C223.505875,333.690521 222.035690,332.452057 221.060669,331.095398 
	C220.045670,332.411163 218.346329,333.634735 218.154099,335.061371 
	C217.715637,338.315308 218.015671,341.668762 218.015671,344.981781 
	C217.338165,344.968414 216.660675,344.955078 215.983170,344.941711 
	C215.983170,341.569092 215.983170,338.196472 215.951218,333.921722 
M193.953934,341.398895 
	C193.351532,344.030762 192.749130,346.662628 192.146729,349.294464 
	C192.354553,349.699036 192.562378,350.103607 192.770203,350.508179 
	C197.568176,346.853333 202.313400,349.125366 207.076752,349.527344 
	C207.188629,349.536774 207.319717,349.318634 208.096649,348.606232 
	C206.818985,343.688812 205.625641,338.280670 203.877762,333.058105 
	C203.529007,332.016113 201.058289,331.172913 199.572891,331.183685 
	C198.373184,331.192413 196.635345,332.364746 196.106094,333.480835 
	C195.064468,335.677368 194.696426,338.193390 193.953934,341.398895 
M313.042969,344.383728 
	C312.090057,340.722992 311.400787,336.959442 310.035431,333.459595 
	C309.582428,332.298431 307.432678,331.295776 305.982239,331.180267 
	C304.735199,331.080963 302.519745,332.079773 302.214783,333.056030 
	C300.566254,338.333984 299.378937,343.756012 297.628754,350.739838 
	C300.649780,349.592377 302.340607,348.737244 304.132751,348.343353 
	C305.352661,348.075256 306.730713,348.354614 308.008698,348.566345 
	C309.641815,348.836945 311.245392,349.285950 312.861694,349.658081 
	C312.966003,348.168427 313.070312,346.678802 313.042969,344.383728 
M115.242851,331.010132 
	C114.246758,331.009186 113.249413,331.040131 112.254799,331.001312 
	C109.318832,330.886688 106.849556,331.282135 107.014343,335.140167 
	C107.151321,338.347290 106.076797,342.204620 111.487999,342.105499 
	C112.321266,342.090179 113.172112,343.034180 114.014832,343.534546 
	C112.251884,344.218262 110.965187,344.050140 109.681915,344.073181 
	C106.527115,344.129761 106.289635,347.234253 107.519073,348.065704 
	C109.571793,349.453857 112.573433,349.772369 115.196976,349.853943 
	C116.696274,349.900543 119.047325,348.984833 119.618538,347.818512 
	C121.944786,343.068756 119.390152,338.783386 114.101639,337.749756 
	C113.827431,337.696136 113.643105,337.182709 113.968742,337.613708 
	C115.931824,336.738342 118.904045,336.355896 119.633278,334.871552 
	C120.789261,332.518494 118.809441,330.978363 115.242851,331.010132 
M125.506439,334.998383 
	C124.363770,339.726624 123.221100,344.454834 121.841446,350.163666 
	C124.407776,349.689209 126.755394,349.955750 127.556587,348.967926 
	C129.500198,346.571716 130.484619,346.490143 132.427841,348.943176 
	C133.120270,349.817261 135.420090,349.661743 136.919479,349.465820 
	C137.255905,349.421906 137.666275,347.166504 137.435226,346.055511 
	C136.597946,342.029266 135.775864,337.955536 134.356674,334.118469 
	C133.855469,332.763336 131.785797,331.567291 130.203415,331.133759 
	C127.943115,330.514465 125.873184,331.213409 125.506439,334.998383 
M290.967285,332.409088 
	C290.341217,334.242615 289.715118,336.076141 288.783142,338.805481 
	C287.095306,330.678925 286.747345,330.390839 281.360321,331.984161 
	C282.548218,337.073364 283.554382,342.234070 285.068207,347.241302 
	C285.424194,348.418762 287.420166,349.628754 288.797211,349.813507 
	C290.054901,349.982178 292.436615,349.055573 292.701874,348.141327 
	C294.276550,342.713928 295.379791,337.149750 296.812561,330.883362 
	C294.460815,331.253296 292.909607,331.497314 290.967285,332.409088 
M172.033264,349.547119 
	C174.501892,349.690277 176.987396,350.059509 179.431702,349.877014 
	C180.578156,349.791443 181.645172,348.642181 182.748199,347.975006 
	C181.802750,347.315125 180.872101,346.632599 179.907486,346.002014 
	C179.034439,345.431183 178.124359,344.916992 177.230606,344.377838 
	C177.868195,343.604126 178.447678,342.771301 179.158646,342.072235 
	C179.972855,341.271698 180.903839,340.589966 181.784088,339.856628 
	C180.809448,339.205750 179.824203,338.570007 178.864136,337.898285 
	C178.281769,337.490845 177.738297,337.027771 177.021545,336.468018 
	C177.650238,335.881653 177.946091,335.502502 178.329880,335.266113 
	C179.782852,334.371338 181.264282,333.522797 182.735092,332.656952 
	C181.017532,332.105682 179.318848,331.479889 177.573746,331.037170 
	C176.796066,330.839874 175.919403,331.074646 175.097153,331.003571 
	C172.154465,330.749237 170.830093,331.968964 170.987885,335.009491 
	C171.227722,339.630310 171.282242,344.260742 172.033264,349.547119 
M163.435669,349.906250 
	C164.288559,348.260925 165.385391,346.693817 165.943100,344.953888 
	C167.075165,341.422028 163.490540,336.427917 169.257889,334.217468 
	C169.335007,334.187927 168.743774,331.377380 168.362350,331.351135 
	C165.065659,331.124542 161.738571,331.142914 158.441437,331.379333 
	C158.046265,331.407715 157.295410,333.878021 157.518188,334.029877 
	C162.025101,337.101715 159.048019,341.725128 160.078583,345.454163 
	C160.518555,347.046051 161.716049,348.428589 163.435669,349.906250 
M373.921112,30.875931 
	C372.638306,26.208200 368.798157,28.434116 366.021637,28.128040 
	C364.840546,27.997841 362.848633,28.739376 362.382141,29.666723 
	C359.440918,35.513836 362.693146,40.188305 369.141693,40.017315 
	C375.431915,39.850513 373.632660,35.237534 373.921112,30.875931 
M328.428314,331.092407 
	C327.309357,331.954620 325.296204,332.748047 325.223663,333.690765 
	C324.879639,338.162201 324.938721,342.680725 325.164124,347.166870 
	C325.211273,348.105865 326.470642,349.631073 327.337219,349.758514 
	C329.781799,350.117950 332.323517,350.020599 334.802307,349.811371 
	C335.491760,349.753204 336.566956,348.706055 336.603455,348.063690 
	C336.638611,347.444672 335.544128,346.183899 334.973419,346.199677 
	C330.491028,346.323639 331.217529,343.206543 330.940979,340.403656 
	C330.635651,337.309448 329.856934,334.261932 328.428314,331.092407 
M235.562943,335.165161 
	C236.046677,338.782593 236.346069,342.439362 237.106110,345.997803 
	C237.404633,347.395569 238.733765,348.573212 239.593567,349.851105 
	C240.388596,348.676331 241.581528,347.601257 241.905518,346.308441 
	C242.961075,342.096375 239.558624,336.601990 245.602753,333.820557 
	C245.762131,333.747223 245.766846,332.922882 245.739059,332.916656 
	C242.775055,332.253723 239.817551,331.336487 236.818985,331.171082 
	C235.711899,331.110016 234.506790,332.825958 233.346390,333.731415 
	C233.822968,334.134277 234.299545,334.537140 235.562943,335.165161 
M316.046570,333.954529 
	C316.038910,338.089600 315.808563,342.243591 316.157227,346.348389 
	C316.263855,347.603638 317.960388,348.723816 318.928802,349.905884 
	C319.942719,348.770630 321.714325,347.707764 321.830933,346.486786 
	C322.206757,342.552826 322.080048,338.555908 321.905548,334.593872 
	C321.855957,333.467682 320.844818,331.393372 320.511169,331.440186 
	C319.004120,331.651550 317.581970,332.467804 316.046570,333.954529 
M349.218689,8.829016 
	C348.548798,18.863285 348.951080,19.231901 358.630676,17.312460 
	C358.630676,14.306600 358.630676,11.286310 358.630676,8.193258 
	C355.464325,8.193258 352.671875,8.193258 349.218689,8.829016 
M385.840149,52.884254 
	C383.210815,52.430363 380.581512,51.976471 377.952209,51.522587 
	C377.745392,53.895355 376.731323,56.659588 377.623505,58.499413 
	C378.191803,59.671288 382.138000,60.434540 383.559875,59.619511 
	C385.000519,58.793728 385.198547,55.800129 385.840149,52.884254 
M180.971710,325.086975 
	C177.685852,324.594360 176.144562,326.123871 175.996719,329.323334 
	C180.533768,330.033661 181.956711,328.994537 180.971710,325.086975 
z"/>
<path fill="#23AA86" opacity="1.000000" stroke="none" 
	d="
M212.583344,0.999999 
	C213.706863,2.213188 214.219833,3.605099 215.149139,4.613257 
	C235.140732,26.301352 259.193909,41.339901 287.726135,49.209961 
	C289.154877,49.604050 290.651398,52.645691 290.735046,54.516319 
	C291.075195,62.126423 290.876587,69.760605 290.876587,77.800110 
	C297.618561,77.800110 303.884888,77.800110 311.481201,77.800110 
	C310.582001,85.907257 310.499786,93.657204 308.741669,101.006195 
	C305.326050,115.283463 301.660156,129.576797 296.825958,143.419250 
	C290.937958,160.279144 281.806854,175.493607 270.308563,189.324356 
	C259.513031,202.309830 247.133911,213.252716 231.825043,220.389648 
	C225.399139,223.385345 218.384186,225.875839 211.406876,226.741959 
	C202.299622,227.872482 194.197296,223.039856 186.358871,218.972809 
	C174.283493,212.707352 163.624954,204.338104 154.702667,194.102310 
	C140.222534,177.490494 129.214172,158.753876 122.024452,137.834595 
	C116.411469,121.503006 111.839874,104.946167 111.002174,87.590935 
	C110.514656,77.490479 110.404106,67.372154 109.957314,57.269230 
	C109.817459,54.106773 111.529846,53.341766 114.095276,53.004524 
	C141.727280,49.372063 166.378799,38.573380 188.046860,21.251564 
	C195.445145,15.337257 201.803436,8.121993 208.318451,1.250569 
	C209.388885,1.000000 210.777786,1.000000 212.583344,0.999999 
M197.395386,203.093079 
	C202.475708,204.630676 207.894989,208.077530 212.555435,207.250137 
	C219.236908,206.063919 225.798462,202.432892 231.652649,198.666580 
	C255.453644,183.354218 270.070221,160.823578 280.038757,134.934998 
	C286.058960,119.300362 289.967743,103.122223 291.454163,86.215530 
	C288.398895,86.053604 285.327850,85.890839 281.940796,85.711327 
	C281.940796,79.287590 281.940796,73.329132 281.940796,67.368431 
	C254.505203,59.979595 231.295776,45.692074 210.464661,27.265566 
	C186.832840,49.104885 159.309372,63.260170 128.394760,70.186386 
	C128.623016,72.994865 128.779816,75.277138 128.998810,77.553429 
	C129.693039,84.769653 129.851227,92.092117 131.225510,99.177834 
	C135.101059,119.159859 140.962433,138.544968 151.113266,156.358688 
	C162.212448,175.836655 176.256958,192.503647 197.395386,203.093079 
z"/>
<path fill="#23AA86" opacity="1.000000" stroke="none" 
	d="
M319.032928,261.001007 
	C325.762482,261.533875 332.028564,262.246887 338.313232,262.502655 
	C340.468994,262.590393 342.648895,261.214172 344.856506,261.059418 
	C352.019745,260.557251 352.893463,262.321320 353.760254,268.707581 
	C354.685760,275.526337 353.968750,282.568024 353.968750,289.749969 
	C350.201630,289.749969 346.945679,289.749969 343.476593,289.749969 
	C343.034302,282.846161 342.599976,276.030914 342.100494,269.220459 
	C342.097870,269.184540 341.176788,269.216003 340.117706,269.216003 
	C340.117706,275.948975 340.117706,282.681458 340.117706,289.698120 
	C336.305878,289.698120 333.046661,289.698120 329.042419,289.698120 
	C329.042419,282.926666 329.042419,276.065582 329.042419,269.204529 
	C328.489258,269.139282 327.936096,269.074066 327.382935,269.008850 
	C324.637909,271.558533 326.340973,275.273773 326.071960,278.388916 
	C325.760101,281.999847 325.999268,285.658386 325.999268,289.646362 
	C322.282623,289.646362 318.913208,289.646362 315.012024,289.646362 
	C315.012024,280.885284 314.904266,272.272308 315.168304,263.670685 
	C315.196655,262.747070 317.388489,261.889862 319.032928,261.001007 
z"/>
<path fill="#23A684" opacity="1.000000" stroke="none" 
	d="
M296.412109,53.066383 
	C296.412140,49.286236 296.412140,45.993565 296.412140,42.347488 
	C306.517273,42.347488 315.904724,42.347488 325.968140,42.347488 
	C325.968140,51.412762 326.045349,60.500313 325.833801,69.581146 
	C325.815216,70.379501 323.921875,71.779900 322.872559,71.805542 
	C315.053284,71.996651 307.222931,72.035988 299.408600,71.762985 
	C298.371796,71.726761 296.620636,69.712341 296.543854,68.527000 
	C296.221588,63.553986 296.410431,58.547855 296.412109,53.066383 
z"/>
<path fill="#23AA86" opacity="1.000000" stroke="none" 
	d="
M82.599136,252.008423 
	C92.109657,254.619720 92.386223,255.005035 91.768761,264.601135 
	C88.414993,264.601135 85.024757,264.601135 81.538086,264.601135 
	C81.444878,264.451477 81.283646,264.194366 81.124191,263.936157 
	C80.352524,262.686768 79.581329,261.437134 78.809967,260.187561 
	C78.209740,261.232971 76.968475,262.408203 77.148209,263.295654 
	C77.480247,264.935150 78.286354,267.150177 79.552925,267.760895 
	C81.178757,268.544861 83.453850,268.017181 85.448532,267.994385 
	C89.996124,267.942383 92.076286,270.236603 92.007828,274.707245 
	C91.959442,277.866272 92.017303,281.026825 91.989944,284.186340 
	C91.958893,287.772766 89.929649,289.757538 86.546982,289.931793 
	C81.902771,290.170990 77.231438,290.136322 72.582176,289.953278 
	C67.994072,289.772644 65.701469,285.468079 66.320328,278.308289 
	C69.553253,278.308289 72.821754,278.308289 75.657196,278.308289 
	C77.010681,279.796570 78.250862,281.160248 79.491043,282.523926 
	C79.896324,282.249756 80.301613,281.975555 80.706894,281.701385 
	C80.706894,279.637512 80.706894,277.573669 80.706894,274.997742 
	C78.060944,274.997742 75.604210,274.908905 73.156296,275.017975 
	C69.198517,275.194336 66.778191,273.203766 66.331985,269.502319 
	C65.898987,265.910461 65.929276,262.199921 66.277084,258.591705 
	C66.781616,253.357635 71.022491,252.524826 75.173103,252.057693 
	C77.472557,251.798904 79.824409,252.005737 82.599136,252.008423 
z"/>
<path fill="#23AA86" opacity="1.000000" stroke="none" 
	d="
M41.782749,289.843201 
	C36.866150,286.983337 37.993038,282.709869 38.184761,278.320129 
	C41.616367,278.320129 44.879902,278.320129 48.204983,278.320129 
	C48.855755,279.551910 49.563808,280.892120 50.271862,282.232330 
	C50.756077,282.119141 51.240292,282.005951 51.724503,281.892761 
	C51.834206,279.875824 51.943913,277.858887 52.053677,275.840790 
	C47.820648,273.265320 41.082237,277.944489 39.041317,272.197449 
	C37.408474,267.599518 37.840248,262.060150 38.247150,257.010498 
	C38.585949,252.806000 46.493305,250.437302 55.328545,252.136368 
	C62.078419,253.434387 64.103340,255.185532 62.617176,264.664062 
	C59.421169,264.664062 56.159435,264.664062 52.749279,264.664062 
	C52.155571,263.159760 51.496304,261.489349 50.837036,259.818939 
	C50.316181,259.917908 49.795322,260.016907 49.274467,260.115906 
	C49.166840,262.466827 49.059208,264.817749 48.913185,268.007324 
	C51.931744,268.007324 54.680958,267.972015 57.428902,268.016052 
	C61.009060,268.073395 62.917431,269.930634 62.978397,273.515015 
	C63.040741,277.180359 63.167442,280.858490 62.941109,284.510864 
	C62.730175,287.914673 60.788967,289.963470 57.204395,289.984070 
	C52.205349,290.012787 47.205845,289.961670 41.782749,289.843201 
z"/>
<path fill="#23AA86" opacity="1.000000" stroke="none" 
	d="
M135.239944,252.005005 
	C141.632721,252.326675 147.546997,252.638870 153.459518,252.981384 
	C157.472931,253.213882 158.704803,256.075287 158.930923,259.375671 
	C159.191757,263.182770 159.070953,267.023010 158.978409,270.845551 
	C158.857742,275.829041 156.711304,277.851379 151.589233,277.994965 
	C149.098694,278.064789 146.607132,278.098114 144.116364,278.161133 
	C143.971313,278.164825 143.829285,278.287537 143.085571,278.636536 
	C143.085571,282.046661 143.085571,285.770142 143.085571,289.735535 
	C139.237732,289.735535 135.982544,289.735535 131.999771,289.735535 
	C131.999771,281.956482 131.999008,274.208801 132.000092,266.461121 
	C132.000610,262.636292 131.808258,258.794678 132.133057,254.997406 
	C132.224030,253.933945 133.842773,253.001175 135.239944,252.005005 
M146.210007,260.127411 
	C139.391632,261.737549 144.750992,266.587372 142.409927,270.165375 
	C145.070511,269.889374 146.449570,269.746307 148.473328,269.536346 
	C147.917221,266.236359 147.440002,263.404449 146.210007,260.127411 
z"/>
<path fill="#23AA86" opacity="1.000000" stroke="none" 
	d="
M380.951477,286.766541 
	C378.921478,288.119568 377.012512,289.633667 374.955353,289.872772 
	C371.181793,290.311371 367.320740,289.978455 363.496368,290.003326 
	C358.932831,290.033020 356.924133,287.706665 356.984955,283.238312 
	C357.055084,278.084473 357.174164,272.921417 356.951202,267.776306 
	C356.740234,262.908386 359.661438,261.376221 363.638519,261.059479 
	C366.943359,260.796295 370.285706,260.984283 373.611206,261.004150 
	C379.932617,261.041931 381.789948,262.843079 381.984131,269.218170 
	C382.064911,271.869873 381.997528,274.526031 381.997528,277.766296 
	C377.089417,277.766296 372.362091,277.766296 367.335083,277.766296 
	C367.335083,279.729645 367.335083,281.112091 367.335083,282.684967 
	C371.946747,281.519653 376.489258,280.371796 382.435974,278.869110 
	C381.755585,282.429016 381.380615,284.390839 380.951477,286.766541 
z"/>
<path fill="#23AA86" opacity="1.000000" stroke="none" 
	d="
M221.032272,283.367279 
	C221.007370,278.598053 220.965347,274.272583 221.009048,269.947968 
	C221.077957,263.126678 223.173492,261.026428 229.823181,261.000366 
	C230.155884,260.999084 230.488770,261.007538 230.821243,260.998901 
	C247.725967,260.559174 246.388885,261.981049 245.753021,277.748138 
	C241.072815,277.748138 236.346344,277.748138 230.626221,277.748138 
	C231.364731,279.896729 231.829208,281.248047 232.293686,282.599365 
	C233.598618,281.953979 234.845200,280.969116 236.220428,280.732758 
	C239.224609,280.216400 242.294144,280.080383 245.261490,279.796204 
	C246.851456,288.004700 245.241974,289.988831 237.574997,289.999512 
	C235.246094,290.002747 232.888214,289.765167 230.594193,290.048096 
	C225.553879,290.669708 222.324814,288.812347 221.032272,283.367279 
z"/>
<path fill="#23AA86" opacity="1.000000" stroke="none" 
	d="
M268.265381,287.533508 
	C267.777679,279.942993 267.110046,272.702057 267.518524,265.522339 
	C267.610413,263.907379 271.296997,261.635712 273.615631,261.202728 
	C277.468323,260.483246 281.555664,260.923737 285.539703,261.035187 
	C288.615509,261.121216 291.228241,262.344391 291.291046,265.802368 
	C291.412537,272.488373 291.322601,279.188599 290.961823,285.863556 
	C290.896057,287.080536 289.235779,289.087555 288.122467,289.227661 
	C281.527588,290.057526 274.785492,291.671204 268.265381,287.533508 
M280.994324,280.131348 
	C281.012878,269.189697 281.012878,269.189697 278.029297,268.111206 
	C278.029297,272.558868 277.980316,276.819733 278.084778,281.076843 
	C278.099579,281.679504 278.861542,282.263794 279.277679,282.856598 
	C279.842957,282.253662 280.408234,281.650726 280.994324,280.131348 
z"/>
<path fill="#23AA86" opacity="1.000000" stroke="none" 
	d="
M199.526093,261.568390 
	C199.827576,271.029205 199.827576,280.135681 199.827576,289.947144 
	C193.255112,289.947144 186.758560,290.294312 180.348907,289.701599 
	C178.757751,289.554474 176.381577,286.462097 176.207092,284.555084 
	C175.664886,278.629395 175.920578,272.621063 176.039597,266.648254 
	C176.109009,263.165649 178.139420,261.107056 181.598953,261.051208 
	C187.471771,260.956421 193.349152,261.144714 199.526093,261.568390 
M189.999649,277.313019 
	C189.999649,274.593506 189.999649,271.873993 189.999649,269.154480 
	C189.478455,268.987701 188.957260,268.820953 188.436066,268.654205 
	C187.629440,269.763916 186.346283,270.785858 186.122131,272.002838 
	C185.736481,274.096375 185.767242,276.350067 186.101776,278.460724 
	C186.294708,279.677948 187.425995,280.746399 188.134933,281.881836 
	C188.756256,280.661743 189.377579,279.441650 189.999649,277.313019 
z"/>
<path fill="#005A54" opacity="1.000000" stroke="none" 
	d="
M334.035553,102.996704 
	C322.563751,102.824211 324.121277,104.353233 324.045319,93.418701 
	C323.952087,79.998726 324.022827,79.930763 337.240265,80.019920 
	C348.460236,80.095604 346.825562,78.563759 347.003174,89.858864 
	C347.005798,90.025261 347.003510,90.191742 347.003510,90.358185 
	C347.003906,102.996696 347.003906,102.996696 334.035553,102.996704 
z"/>
<path fill="#23AA86" opacity="1.000000" stroke="none" 
	d="
M103.037888,251.999924 
	C108.481796,251.999924 113.434166,251.999924 118.687973,251.999924 
	C118.687973,254.662781 118.687973,256.916901 118.687973,259.767639 
	C116.448433,259.895325 114.053391,260.031891 111.098358,260.200378 
	C111.098358,270.021271 111.098358,279.728882 111.098358,289.710785 
	C107.619789,289.710785 104.696724,289.710785 101.195099,289.710785 
	C101.195099,280.069122 101.195099,270.363525 101.195099,260.363464 
	C98.267662,260.118530 95.878159,259.918610 93.257019,259.699310 
	C93.257019,257.237030 93.257019,254.974655 93.257019,251.999924 
	C96.360825,251.999924 99.453590,251.999924 103.037888,251.999924 
z"/>
<path fill="#23AA86" opacity="1.000000" stroke="none" 
	d="
M250.999908,279.994720 
	C250.977264,276.522034 251.288116,273.480530 250.805603,270.570587 
	C250.520859,268.853363 248.719025,267.438354 248.095444,265.708618 
	C247.684479,264.568665 247.750015,262.897491 248.307693,261.834198 
	C250.084625,258.446014 251.488525,254.177261 254.373444,252.252487 
	C257.125366,250.416443 261.553711,251.093109 265.654114,250.617752 
	C265.654114,253.581833 265.654114,255.825867 265.654114,258.478882 
	C264.339294,258.796204 262.754486,259.178650 261.169708,259.561127 
	C261.163177,259.842255 261.156616,260.123413 261.150085,260.404541 
	C262.607025,260.742340 264.063965,261.080139 265.757751,261.472839 
	C265.757751,263.693695 265.757751,265.963959 265.757751,268.550446 
	C264.391907,268.806427 262.993469,269.068512 261.043610,269.433960 
	C261.043610,276.039856 261.043610,282.761261 261.043610,289.731506 
	C257.581268,289.731506 254.661469,289.731506 250.999908,289.731506 
	C250.999908,286.648346 250.999908,283.564758 250.999908,279.994720 
z"/>
<path fill="#005A54" opacity="1.000000" stroke="none" 
	d="
M261.984314,337.774048 
	C261.878601,341.613159 258.168304,345.391754 263.476562,348.632904 
	C264.687408,343.923553 265.959991,339.387756 266.993500,334.798157 
	C267.607117,332.073120 269.084167,330.344421 271.785370,331.162750 
	C273.422607,331.658783 275.417206,333.203247 275.941986,334.727448 
	C277.545746,339.385468 278.515686,344.261719 279.736969,349.071869 
	C279.032990,349.424927 278.436310,349.939087 278.206116,349.808258 
	C272.161224,346.373199 266.204193,350.854980 260.231232,349.947296 
	C258.285828,349.651672 256.422363,348.816681 254.869461,348.336090 
	C252.949921,348.943207 250.958420,349.573090 248.104645,350.475708 
	C248.104645,344.040100 248.017548,338.749603 248.197784,333.468231 
	C248.225067,332.668610 249.444199,331.306244 250.200897,331.241394 
	C253.172989,330.986755 256.444305,330.442444 259.073090,331.426025 
	C260.574860,331.987915 261.051483,335.289612 261.984314,337.774048 
z"/>
<path fill="#23AA86" opacity="1.000000" stroke="none" 
	d="
M202.004974,265.889771 
	C202.727478,263.910339 203.581558,262.416412 204.141785,260.819366 
	C204.720428,259.169830 205.013412,257.420074 205.524231,255.335098 
	C208.638885,255.335098 212.037811,255.335098 215.706940,255.335098 
	C215.877304,257.016937 216.039703,258.620087 216.225021,260.449524 
	C221.890015,260.823334 219.607620,265.038422 219.959732,268.205414 
	C213.165543,269.587494 216.641815,274.874084 216.161667,278.517548 
	C215.982468,279.877289 217.619507,281.476410 218.428375,282.966400 
	C218.872391,282.809723 219.316422,282.653076 219.760437,282.496399 
	C219.760437,284.767578 219.760437,287.038757 219.760437,289.296631 
	C209.231827,291.699402 205.069138,289.242065 205.000824,280.636597 
	C204.994217,279.804749 205.005981,278.972778 204.998642,278.140961 
	C204.961777,273.961212 205.712769,269.580963 202.004974,265.889771 
z"/>
<path fill="#23AA86" opacity="1.000000" stroke="none" 
	d="
M164.233673,251.026093 
	C167.185654,251.009445 169.669830,251.009445 172.576248,251.009445 
	C172.576248,263.858612 172.576248,276.527222 172.576248,289.599792 
	C169.386246,289.599792 166.025803,289.599792 162.093613,289.599792 
	C162.093613,277.238983 162.074753,264.860046 162.164246,252.481827 
	C162.167740,251.998291 163.208435,251.522263 164.233673,251.026093 
z"/>
<path fill="#22AA84" opacity="1.000000" stroke="none" 
	d="
M347.002441,64.683128 
	C347.000519,59.403233 347.000519,54.594547 347.000519,49.110714 
	C352.636719,49.110714 358.051453,48.948776 363.437775,49.267616 
	C364.352295,49.321751 365.785675,51.392601 365.876587,52.613819 
	C366.184235,56.746845 365.919647,60.918701 366.024963,65.071884 
	C366.093201,67.761719 365.114380,69.097816 362.277039,69.023193 
	C358.456329,68.922714 354.628906,68.921867 350.808350,69.025757 
	C348.030701,69.101273 346.796661,67.895416 347.002441,64.683128 
z"/>
<path fill="#23AA86" opacity="1.000000" stroke="none" 
	d="
M296.492432,289.442871 
	C296.180084,279.962616 296.180084,270.831055 296.180084,261.226868 
	C301.621826,261.226868 306.913696,261.226868 312.623138,261.226868 
	C312.623138,263.243073 312.623138,266.276276 312.623138,269.729706 
	C306.090332,268.859650 305.630402,272.976135 305.951996,277.979889 
	C306.195068,281.762360 306.000122,285.573029 306.000122,289.791534 
	C302.669403,289.791534 299.737091,289.791534 296.492432,289.442871 
z"/>
<path fill="#005A54" opacity="1.000000" stroke="none" 
	d="
M146.994461,346.184143 
	C146.575226,346.345062 146.334213,346.792755 145.984375,347.126343 
	C144.981903,348.082367 143.861786,349.792389 142.925674,349.706390 
	C141.884369,349.610748 140.234772,347.908386 140.169617,346.826019 
	C139.872543,341.892029 140.039276,336.930145 140.039276,332.017975 
	C145.278015,329.418976 146.828369,332.600311 148.571548,336.394257 
	C148.753616,335.244568 148.679031,333.957825 149.197021,332.987488 
	C149.630112,332.176178 150.781357,331.231354 151.568893,331.270264 
	C152.370590,331.309906 153.760529,332.457306 153.784470,333.157562 
	C153.969910,338.579681 153.886749,344.010986 153.886749,349.125427 
	C149.974716,350.968231 148.363480,349.072510 146.994461,346.184143 
z"/>
<path fill="#005A54" opacity="1.000000" stroke="none" 
	d="
M215.967194,334.372803 
	C215.983170,338.196472 215.983170,341.569092 215.983170,344.941711 
	C216.660675,344.955078 217.338165,344.968414 218.015671,344.981781 
	C218.015671,341.668762 217.715637,338.315308 218.154099,335.061371 
	C218.346329,333.634735 220.045670,332.411163 221.060669,331.095398 
	C222.035690,332.452057 223.505875,333.690521 223.864944,335.194244 
	C224.353775,337.241394 223.999298,339.491119 223.997864,341.653961 
	C223.992462,349.701874 220.731461,352.228577 212.989792,349.735992 
	C211.716965,349.326233 210.341309,347.201965 210.187637,345.746094 
	C209.788162,341.961426 209.874374,338.095978 210.140579,334.288940 
	C210.217621,333.187469 211.559830,332.174500 212.322021,331.120941 
	C213.531754,332.054535 214.741486,332.988129 215.967194,334.372803 
z"/>
<path fill="#005A54" opacity="1.000000" stroke="none" 
	d="
M194.001831,340.988068 
	C194.696426,338.193390 195.064468,335.677368 196.106094,333.480835 
	C196.635345,332.364746 198.373184,331.192413 199.572891,331.183685 
	C201.058289,331.172913 203.529007,332.016113 203.877762,333.058105 
	C205.625641,338.280670 206.818985,343.688812 208.096649,348.606232 
	C207.319717,349.318634 207.188629,349.536774 207.076752,349.527344 
	C202.313400,349.125366 197.568176,346.853333 192.770203,350.508179 
	C192.562378,350.103607 192.354553,349.699036 192.146729,349.294464 
	C192.749130,346.662628 193.351532,344.030762 194.001831,340.988068 
z"/>
<path fill="#005A54" opacity="1.000000" stroke="none" 
	d="
M313.108826,344.786438 
	C313.070312,346.678802 312.966003,348.168427 312.861694,349.658081 
	C311.245392,349.285950 309.641815,348.836945 308.008698,348.566345 
	C306.730713,348.354614 305.352661,348.075256 304.132751,348.343353 
	C302.340607,348.737244 300.649780,349.592377 297.628754,350.739838 
	C299.378937,343.756012 300.566254,338.333984 302.214783,333.056030 
	C302.519745,332.079773 304.735199,331.080963 305.982239,331.180267 
	C307.432678,331.295776 309.582428,332.298431 310.035431,333.459595 
	C311.400787,336.959442 312.090057,340.722992 313.108826,344.786438 
z"/>
<path fill="#005A54" opacity="1.000000" stroke="none" 
	d="
M115.678986,331.019287 
	C118.809441,330.978363 120.789261,332.518494 119.633278,334.871552 
	C118.904045,336.355896 115.931824,336.738342 113.968742,337.613708 
	C113.643105,337.182709 113.827431,337.696136 114.101639,337.749756 
	C119.390152,338.783386 121.944786,343.068756 119.618538,347.818512 
	C119.047325,348.984833 116.696274,349.900543 115.196976,349.853943 
	C112.573433,349.772369 109.571793,349.453857 107.519073,348.065704 
	C106.289635,347.234253 106.527115,344.129761 109.681915,344.073181 
	C110.965187,344.050140 112.251884,344.218262 114.014832,343.534546 
	C113.172112,343.034180 112.321266,342.090179 111.487999,342.105499 
	C106.076797,342.204620 107.151321,338.347290 107.014343,335.140167 
	C106.849556,331.282135 109.318832,330.886688 112.254799,331.001312 
	C113.249413,331.040131 114.246758,331.009186 115.678986,331.019287 
z"/>
<path fill="#005A54" opacity="1.000000" stroke="none" 
	d="
M125.665085,334.616455 
	C125.873184,331.213409 127.943115,330.514465 130.203415,331.133759 
	C131.785797,331.567291 133.855469,332.763336 134.356674,334.118469 
	C135.775864,337.955536 136.597946,342.029266 137.435226,346.055511 
	C137.666275,347.166504 137.255905,349.421906 136.919479,349.465820 
	C135.420090,349.661743 133.120270,349.817261 132.427841,348.943176 
	C130.484619,346.490143 129.500198,346.571716 127.556587,348.967926 
	C126.755394,349.955750 124.407776,349.689209 121.841446,350.163666 
	C123.221100,344.454834 124.363770,339.726624 125.665085,334.616455 
z"/>
<path fill="#005A54" opacity="1.000000" stroke="none" 
	d="
M291.162842,332.075195 
	C292.909607,331.497314 294.460815,331.253296 296.812561,330.883362 
	C295.379791,337.149750 294.276550,342.713928 292.701874,348.141327 
	C292.436615,349.055573 290.054901,349.982178 288.797211,349.813507 
	C287.420166,349.628754 285.424194,348.418762 285.068207,347.241302 
	C283.554382,342.234070 282.548218,337.073364 281.360321,331.984161 
	C286.747345,330.390839 287.095306,330.678925 288.783142,338.805481 
	C289.715118,336.076141 290.341217,334.242615 291.162842,332.075195 
z"/>
<path fill="#005A54" opacity="1.000000" stroke="none" 
	d="
M171.724365,349.217102 
	C171.282242,344.260742 171.227722,339.630310 170.987885,335.009491 
	C170.830093,331.968964 172.154465,330.749237 175.097153,331.003571 
	C175.919403,331.074646 176.796066,330.839874 177.573746,331.037170 
	C179.318848,331.479889 181.017532,332.105682 182.735077,332.656952 
	C181.264282,333.522797 179.782852,334.371338 178.329880,335.266113 
	C177.946091,335.502502 177.650238,335.881653 177.021545,336.468018 
	C177.738297,337.027771 178.281769,337.490845 178.864136,337.898285 
	C179.824203,338.570007 180.809448,339.205750 181.784088,339.856628 
	C180.903839,340.589966 179.972855,341.271698 179.158646,342.072235 
	C178.447678,342.771301 177.868195,343.604126 177.230591,344.377838 
	C178.124359,344.916992 179.034439,345.431183 179.907486,346.002014 
	C180.872101,346.632599 181.802750,347.315125 182.748199,347.974976 
	C181.645172,348.642181 180.578156,349.791443 179.431702,349.877014 
	C176.987396,350.059509 174.501892,349.690277 171.724365,349.217102 
z"/>
<path fill="#005A54" opacity="1.000000" stroke="none" 
	d="
M163.002502,349.906250 
	C161.716049,348.428589 160.518555,347.046051 160.078583,345.454163 
	C159.048019,341.725128 162.025101,337.101715 157.518188,334.029877 
	C157.295410,333.878021 158.046265,331.407715 158.441437,331.379333 
	C161.738571,331.142914 165.065659,331.124542 168.362350,331.351135 
	C168.743774,331.377380 169.335007,334.187927 169.257889,334.217468 
	C163.490540,336.427917 167.075165,341.422028 165.943100,344.953888 
	C165.385391,346.693817 164.288559,348.260925 163.002502,349.906250 
z"/>
<path fill="#005A53" opacity="1.000000" stroke="none" 
	d="
M373.947388,31.311958 
	C373.632660,35.237534 375.431915,39.850513 369.141693,40.017315 
	C362.693146,40.188305 359.440918,35.513836 362.382141,29.666723 
	C362.848633,28.739376 364.840546,27.997841 366.021637,28.128040 
	C368.798157,28.434116 372.638306,26.208200 373.947388,31.311958 
z"/>
<path fill="#005A54" opacity="1.000000" stroke="none" 
	d="
M328.856384,331.143250 
	C329.856934,334.261932 330.635651,337.309448 330.940979,340.403656 
	C331.217529,343.206543 330.491028,346.323639 334.973419,346.199677 
	C335.544128,346.183899 336.638611,347.444672 336.603455,348.063690 
	C336.566956,348.706055 335.491760,349.753204 334.802307,349.811371 
	C332.323517,350.020599 329.781799,350.117950 327.337219,349.758514 
	C326.470642,349.631073 325.211273,348.105865 325.164124,347.166870 
	C324.938721,342.680725 324.879639,338.162201 325.223663,333.690765 
	C325.296204,332.748047 327.309357,331.954620 328.856384,331.143250 
z"/>
<path fill="#005A54" opacity="1.000000" stroke="none" 
	d="
M235.169525,335.052582 
	C234.299545,334.537140 233.822968,334.134277 233.346390,333.731415 
	C234.506790,332.825958 235.711899,331.110016 236.818985,331.171082 
	C239.817551,331.336487 242.775055,332.253723 245.739059,332.916656 
	C245.766846,332.922882 245.762131,333.747223 245.602753,333.820557 
	C239.558624,336.601990 242.961075,342.096375 241.905518,346.308441 
	C241.581528,347.601257 240.388596,348.676331 239.593567,349.851105 
	C238.733765,348.573212 237.404633,347.395569 237.106110,345.997803 
	C236.346069,342.439362 236.046677,338.782593 235.169525,335.052582 
z"/>
<path fill="#005A54" opacity="1.000000" stroke="none" 
	d="
M316.087891,333.510315 
	C317.581970,332.467804 319.004120,331.651550 320.511169,331.440186 
	C320.844818,331.393372 321.855957,333.467682 321.905548,334.593872 
	C322.080048,338.555908 322.206757,342.552826 321.830933,346.486786 
	C321.714325,347.707764 319.942719,348.770630 318.928802,349.905884 
	C317.960388,348.723816 316.263855,347.603638 316.157227,346.348389 
	C315.808563,342.243591 316.038910,338.089600 316.087891,333.510315 
z"/>
<path fill="#21A884" opacity="1.000000" stroke="none" 
	d="
M349.549072,8.511137 
	C352.671875,8.193258 355.464325,8.193258 358.630676,8.193258 
	C358.630676,11.286310 358.630676,14.306600 358.630676,17.312460 
	C348.951080,19.231901 348.548798,18.863285 349.549072,8.511137 
z"/>
<path fill="#005A54" opacity="1.000000" stroke="none" 
	d="
M385.890503,53.320145 
	C385.198547,55.800129 385.000519,58.793728 383.559875,59.619511 
	C382.138000,60.434540 378.191803,59.671288 377.623505,58.499413 
	C376.731323,56.659588 377.745392,53.895355 377.952209,51.522583 
	C380.581512,51.976471 383.210815,52.430363 385.890503,53.320145 
z"/>
<path fill="#005A54" opacity="1.000000" stroke="none" 
	d="
M181.325439,325.154572 
	C181.956711,328.994537 180.533768,330.033661 175.996719,329.323334 
	C176.144562,326.123871 177.685852,324.594360 181.325439,325.154572 
z"/>
<path fill="#000000" opacity="1.000000" stroke="none" 
	d="
M197.025986,203.005463 
	C176.256958,192.503647 162.212448,175.836655 151.113266,156.358688 
	C140.962433,138.544968 135.101059,119.159859 131.225510,99.177834 
	C129.851227,92.092117 129.693039,84.769653 128.998810,77.553429 
	C128.779816,75.277138 128.623016,72.994865 128.394760,70.186386 
	C159.309372,63.260170 186.832840,49.104885 210.464661,27.265566 
	C231.295776,45.692074 254.505203,59.979595 281.940796,67.368431 
	C281.940796,73.329132 281.940796,79.287590 281.940796,85.711327 
	C285.327850,85.890839 288.398895,86.053604 291.454163,86.215530 
	C289.967743,103.122223 286.058960,119.300362 280.038757,134.934998 
	C270.070221,160.823578 255.453644,183.354218 231.652649,198.666580 
	C225.798462,202.432892 219.236908,206.063919 212.555435,207.250137 
	C207.894989,208.077530 202.475708,204.630676 197.025986,203.005463 
M237.548981,152.665756 
	C237.695236,151.400696 238.312576,149.957809 237.912811,148.898865 
	C234.869919,140.838562 231.659927,132.840500 228.430649,124.851891 
	C227.368561,122.224480 227.075546,120.107353 229.561569,117.829742 
	C237.785263,110.295471 237.545303,95.677574 232.121262,87.571518 
	C227.135895,80.121040 220.024872,76.653679 210.827087,75.323685 
	C210.827087,61.633072 210.827087,48.117435 210.827087,33.830070 
	C209.251328,34.799892 208.570480,35.186283 207.923004,35.622261 
	C196.544373,43.284233 185.708664,51.976547 173.639969,58.325447 
	C162.010483,64.443283 149.081406,68.074669 136.800934,72.992371 
	C135.353958,73.571808 133.343658,75.418961 133.390274,76.608040 
	C133.642609,83.044144 133.958694,89.554695 135.173599,95.862228 
	C139.455612,118.093819 145.924698,139.596619 158.033142,159.021072 
	C169.091187,176.760452 182.752350,191.760162 202.192993,200.571228 
	C204.789413,201.748016 207.604675,202.441910 211.001724,203.590378 
	C211.001724,187.836349 210.965088,173.042297 211.043472,158.248871 
	C211.054504,156.167343 211.627991,154.088776 212.468445,152.695099 
	C220.609055,152.750000 228.749680,152.804901 237.548981,152.665756 
z"/>
<path fill="#000000" opacity="1.000000" stroke="none" 
	d="
M146.586395,260.349976 
	C147.440002,263.404449 147.917221,266.236359 148.473328,269.536346 
	C146.449570,269.746307 145.070511,269.889374 142.409927,270.165375 
	C144.750992,266.587372 139.391632,261.737549 146.586395,260.349976 
z"/>
<path fill="#000000" opacity="1.000000" stroke="none" 
	d="
M280.983887,280.589569 
	C280.408234,281.650726 279.842957,282.253662 279.277679,282.856598 
	C278.861542,282.263794 278.099579,281.679504 278.084778,281.076843 
	C277.980316,276.819733 278.029297,272.558868 278.029297,268.111206 
	C281.012878,269.189697 281.012878,269.189697 280.983887,280.589569 
z"/>
<path fill="#000000" opacity="1.000000" stroke="none" 
	d="
M189.999268,277.767273 
	C189.377579,279.441650 188.756256,280.661743 188.134933,281.881836 
	C187.425995,280.746399 186.294708,279.677948 186.101776,278.460724 
	C185.767242,276.350067 185.736481,274.096375 186.122131,272.002838 
	C186.346283,270.785858 187.629440,269.763916 188.436066,268.654205 
	C188.957260,268.820953 189.478455,268.987701 189.999649,269.154480 
	C189.999649,271.873993 189.999649,274.593506 189.999268,277.767273 
z"/>
<path fill="#005A54" opacity="1.000000" stroke="none" 
	d="
M211.941116,152.008850 
	C211.627991,154.088776 211.054504,156.167343 211.043472,158.248871 
	C210.965088,173.042297 211.001724,187.836349 211.001724,203.590378 
	C207.604675,202.441910 204.789413,201.748016 202.192993,200.571228 
	C182.752350,191.760162 169.091187,176.760452 158.033142,159.021072 
	C145.924698,139.596619 139.455612,118.093819 135.173599,95.862228 
	C133.958694,89.554695 133.642609,83.044144 133.390274,76.608040 
	C133.343658,75.418961 135.353958,73.571808 136.800934,72.992371 
	C149.081406,68.074669 162.010483,64.443283 173.639969,58.325447 
	C185.708664,51.976547 196.544373,43.284233 207.923004,35.622261 
	C208.570480,35.186283 209.251328,34.799892 210.827087,33.830070 
	C210.827087,48.117435 210.827087,61.633072 210.827087,75.323685 
	C220.024872,76.653679 227.135895,80.121040 232.121262,87.571518 
	C237.545303,95.677574 237.785263,110.295471 229.561569,117.829742 
	C227.075546,120.107353 227.368561,122.224480 228.430649,124.851891 
	C231.659927,132.840500 234.869919,140.838562 237.912811,148.898865 
	C238.312576,149.957809 237.695236,151.400696 236.857681,152.582489 
	C228.091293,152.335770 220.016205,152.172318 211.941116,152.008850 
M223.757202,88.768044 
	C223.209808,88.402328 222.588394,88.112236 222.126068,87.659637 
	C214.415955,80.111366 203.049866,82.944733 197.302292,89.142151 
	C191.385529,95.522018 190.526871,108.333572 197.460571,113.392586 
	C203.420853,117.741364 202.357101,121.461212 200.028473,126.426506 
	C199.537933,127.472481 199.112823,128.551270 198.699615,129.631027 
	C196.840805,134.488098 194.997162,139.350983 193.034561,144.510056 
	C205.048340,144.510056 216.217911,144.510056 228.098923,144.510056 
	C224.561707,135.134583 221.274231,126.421021 218.008408,117.764862 
	C229.981461,112.218369 231.449829,96.648987 223.757202,88.768044 
z"/>
<path fill="#007F7F" opacity="1.000000" stroke="none" 
	d="
M212.204773,152.351990 
	C220.016205,152.172318 228.091293,152.335770 236.528336,152.679520 
	C228.749680,152.804901 220.609055,152.750000 212.204773,152.351990 
z"/>
<path fill="#000000" opacity="1.000000" stroke="none" 
	d="
M223.940521,89.087875 
	C231.449829,96.648987 229.981461,112.218369 218.008408,117.764862 
	C221.274231,126.421021 224.561707,135.134583 228.098923,144.510056 
	C216.217911,144.510056 205.048340,144.510056 193.034561,144.510056 
	C194.997162,139.350983 196.840805,134.488098 198.699615,129.631027 
	C199.112823,128.551270 199.537933,127.472481 200.028473,126.426506 
	C202.357101,121.461212 203.420853,117.741364 197.460571,113.392586 
	C190.526871,108.333572 191.385529,95.522018 197.302292,89.142151 
	C203.049866,82.944733 214.415955,80.111366 222.126068,87.659637 
	C222.588394,88.112236 223.209808,88.402328 223.940521,89.087875 
z"/>
</svg>