<?xml version="1.0" standalone="no"?>
<!DOCTYPE svg PUBLIC "-//W3C//DTD SVG 20010904//EN"
 "http://www.w3.org/TR/2001/REC-SVG-20010904/DTD/svg10.dtd">
<svg version="1.0" xmlns="http://www.w3.org/2000/svg"
 width="366.000000pt" height="355.000000pt" viewBox="0 0 366.000000 355.000000"
 preserveAspectRatio="xMidYMid meet">

<g transform="translate(0.000000,355.000000) scale(0.100000,-0.100000)"
fill="#000000" stroke="none">
<path d="M3290 3220 l0 -50 45 0 45 0 0 50 0 50 -45 0 -45 0 0 -50z"/>
<path d="M1695 3154 c-165 -129 -364 -235 -570 -303 l-120 -39 3 -54 c5 -89
31 -237 61 -353 90 -340 279 -631 508 -779 57 -37 159 -86 178 -86 3 0 6 114
7 253 l3 252 133 3 c72 1 132 5 132 9 0 4 -25 71 -55 150 l-55 143 35 45 c81
106 74 226 -20 322 -49 50 -97 73 -152 73 -23 0 -23 0 -25 206 l-3 205 -60
-47z m150 -433 c69 -31 115 -105 115 -181 -1 -39 -34 -103 -71 -135 l-35 -30
52 -135 52 -135 -186 -3 c-102 -1 -187 0 -190 3 -3 3 17 64 45 137 l50 132
-43 40 c-153 148 17 395 211 307z"/>
<path d="M3440 3005 c0 -34 1 -35 40 -35 39 0 40 1 40 35 0 34 -1 35 -40 35
-39 0 -40 -1 -40 -35z"/>
<path d="M2910 2645 l0 -105 105 0 105 0 0 105 0 105 -105 0 -105 0 0 -105z"/>
<path d="M1432 289 c-7 -12 -11 -23 -8 -26 9 -9 34 5 46 26 9 18 8 21 -7 21
-10 0 -24 -9 -31 -21z"/>
<path d="M753 243 c-8 -3 -13 -23 -13 -48 0 -44 10 -55 51 -55 14 0 19 -7 19
-25 0 -16 -6 -25 -15 -25 -8 0 -15 7 -15 15 0 8 -9 15 -20 15 -25 0 -28 -45
-4 -54 21 -8 67 -7 80 2 17 11 26 47 18 76 -5 22 -12 26 -40 26 -30 0 -34 3
-34 25 0 16 6 25 15 25 8 0 15 -4 15 -10 0 -5 9 -10 20 -10 24 0 28 35 4 44
-18 7 -63 7 -81 -1z"/>
<path d="M911 165 c-26 -103 -26 -105 -1 -105 11 0 20 7 20 15 0 10 10 15 30
15 20 0 30 -5 30 -15 0 -9 9 -15 24 -15 l24 0 -15 57 c-36 142 -31 133 -62
133 -27 0 -29 -3 -50 -85z m64 -44 c-10 -9 -34 10 -30 24 16 49 18 50 26 15 4
-19 6 -37 4 -39z"/>
<path d="M1070 155 c0 -88 1 -95 20 -95 17 0 20 7 21 53 l0 52 24 -52 c14 -31
30 -53 39 -53 13 0 16 16 16 95 0 76 -3 95 -14 95 -11 0 -16 -15 -18 -52 l-4
-53 -23 53 c-16 36 -29 52 -42 52 -17 0 -19 -9 -19 -95z"/>
<path d="M1230 235 c0 -8 9 -15 20 -15 18 0 20 -7 20 -80 0 -73 2 -80 20 -80
18 0 20 7 20 80 0 73 2 80 20 80 11 0 20 7 20 15 0 12 -13 15 -60 15 -47 0
-60 -3 -60 -15z"/>
<path d="M1380 155 l0 -95 55 0 c41 0 55 4 55 14 0 9 -12 16 -32 18 -25 2 -34
8 -36 26 -3 19 1 22 27 22 40 0 42 27 4 32 -20 2 -28 9 -28 23 0 14 8 21 28
23 15 2 27 9 27 18 0 10 -13 14 -50 14 l-50 0 0 -95z"/>
<path d="M1611 165 c-26 -103 -26 -105 -1 -105 11 0 20 7 20 15 0 10 10 15 30
15 20 0 30 -5 30 -15 0 -9 9 -15 24 -15 l24 0 -15 57 c-36 142 -31 133 -62
133 -27 0 -29 -3 -50 -85z m64 -44 c-10 -9 -34 10 -30 24 16 49 18 50 26 15 4
-19 6 -37 4 -39z"/>
<path d="M1770 167 c0 -93 7 -107 56 -107 62 0 64 4 64 101 0 82 -2 89 -20 89
-17 0 -19 -8 -22 -77 -2 -61 -6 -78 -18 -78 -12 0 -16 17 -18 78 -3 69 -5 77
-22 77 -18 0 -20 -7 -20 -83z"/>
<path d="M2000 235 c0 -8 7 -15 15 -15 12 0 15 -16 15 -80 0 -79 0 -80 25 -80
25 0 25 1 25 80 0 64 3 80 15 80 8 0 15 7 15 15 0 12 -13 15 -55 15 -42 0 -55
-3 -55 -15z"/>
<path d="M2150 155 c0 -87 2 -95 19 -95 16 0 21 8 23 38 l4 37 17 -38 c13 -28
23 -37 42 -37 25 0 25 0 9 32 -13 24 -14 36 -5 50 15 23 14 81 -1 96 -7 7 -34
12 -60 12 l-48 0 0 -95z m75 35 c0 -16 -6 -26 -17 -28 -14 -3 -18 3 -18 28 0
25 4 31 18 28 11 -2 17 -12 17 -28z"/>
<path d="M2345 238 c-2 -7 -11 -42 -20 -78 -9 -36 -18 -73 -21 -82 -7 -23 34
-25 42 -3 8 19 50 19 58 0 3 -8 15 -15 27 -15 17 0 20 4 15 23 -3 12 -13 55
-23 95 -16 69 -18 72 -45 72 -16 0 -31 -6 -33 -12z m45 -95 c0 -14 -6 -23 -15
-23 -16 0 -18 12 -8 48 4 18 8 20 14 10 5 -7 9 -23 9 -35z"/>
<path d="M2483 228 c4 -12 14 -56 24 -96 15 -67 19 -72 43 -72 24 0 28 5 43
73 10 39 20 82 23 95 5 18 2 22 -19 22 -23 0 -26 -4 -32 -60 -4 -33 -10 -60
-14 -60 -4 0 -12 26 -17 58 -8 49 -12 57 -33 60 -21 3 -23 1 -18 -20z"/>
<path d="M2671 165 c-26 -103 -26 -105 -1 -105 11 0 20 7 20 15 0 10 10 15 30
15 20 0 30 -5 30 -15 0 -9 9 -15 24 -15 l24 0 -15 57 c-36 142 -31 133 -62
133 -27 0 -29 -3 -50 -85z m64 -44 c-10 -9 -34 10 -30 24 16 49 18 50 26 15 4
-19 6 -37 4 -39z"/>
<path d="M2830 155 c0 -88 1 -95 20 -95 19 0 20 7 20 95 0 88 -1 95 -20 95
-19 0 -20 -7 -20 -95z"/>
<path d="M2920 155 l0 -95 50 0 c37 0 50 4 50 14 0 9 -12 16 -27 18 -28 3 -28
4 -31 81 -3 69 -5 77 -22 77 -18 0 -20 -7 -20 -95z"/>
</g>
</svg>
