<?xml version="1.0" encoding="utf-8"?>
<!DOCTYPE svg PUBLIC "-//W3C//DTD SVG 20010904//EN" "http://www.w3.org/TR/2001/REC-SVG-20010904/DTD/svg10.dtd">
<svg version="1.0" xmlns="http://www.w3.org/2000/svg" width="368pt" height="357pt" viewBox="0 0 368 357" style="" preserveAspectRatio="xMidYMid meet">
<g fill="#2CA987FF" stroke="#2CA987FF">
<path d="M 172.462 8.084 C 159.719 21.139 143.177 32.985 126.500 40.998 C 114.286 46.866 103.958 50.315 89.500 53.356 L 78.500 55.669 78.606 70.138 C 79.023 126.907 103.475 181.389 140.888 208.907 C 150.348 215.865 162.523 222.069 171.636 224.576 C 177.616 226.222 177.957 226.208 185.100 224.038 C 207.777 217.150 229.406 199.783 245.899 175.220 C 255.699 160.624 265.584 137.618 270.380 118.245 C 274.000 103.621 277.270 82.866 276.337 80.435 C 275.910 79.322 273.570 79.000 265.921 79.000 L 256.056 79.000 255.778 65.256 L 255.500 51.511 245.018 47.818 C 223.114 40.101 202.903 27.621 186.611 11.750 C 181.670 6.938 177.582 3.000 177.526 3.000 C 177.471 3.000 175.192 5.288 172.462 8.084 M 187.000 33.062 C 202.130 45.626 219.986 55.562 240.657 62.919 C 250.740 66.508 250.850 66.643 250.526 75.097 C 250.213 83.297 251.150 85.000 255.975 85.000 C 259.816 85.000 260.000 85.143 260.000 88.124 C 260.000 92.464 255.562 113.856 252.661 123.500 C 240.644 163.448 214.797 195.834 186.100 206.901 C 177.400 210.256 175.338 210.133 165.600 205.674 C 146.067 196.732 125.613 175.309 113.549 151.157 C 109.497 143.045 104.821 130.978 101.862 121.000 C 97.677 106.889 93.411 79.721 94.175 72.052 C 94.499 68.803 94.541 68.779 106.000 65.468 C 119.582 61.543 129.365 57.594 141.000 51.340 C 149.976 46.515 165.787 35.626 172.500 29.646 C 174.700 27.687 176.950 26.065 177.500 26.043 C 178.050 26.021 182.325 29.179 187.000 33.062 "/></g>
<g fill="#0E5952FF" stroke="#0E5952FF">
<path d="M 169.993 41.554 C 156.791 52.500 133.847 64.630 114.083 71.114 L 102.500 74.913 102.672 82.207 C 103.259 107.142 114.192 139.865 129.832 163.500 C 135.098 171.458 148.154 185.475 154.942 190.457 C 160.291 194.384 173.141 201.000 175.419 201.000 C 176.818 201.000 177.000 198.125 177.000 176.000 L 177.000 151.000 190.000 151.000 C 200.973 151.000 203.000 150.763 203.000 149.478 C 203.000 148.641 200.989 142.812 198.531 136.525 C 192.307 120.607 192.270 120.384 195.261 117.185 C 199.763 112.371 201.370 108.017 201.328 100.750 C 201.295 95.081 200.821 93.241 198.365 89.250 C 194.777 83.420 187.677 78.479 181.573 77.563 L 177.000 76.877 177.000 56.939 C 177.000 45.972 176.659 37.000 176.243 37.000 C 175.827 37.000 173.014 39.049 169.993 41.554 M 188.160 84.887 C 198.918 91.709 199.954 107.971 190.155 116.216 L 187.025 118.850 192.029 132.076 C 194.781 139.350 196.883 145.451 196.700 145.633 C 196.219 146.114 158.872 146.206 158.394 145.727 C 158.172 145.506 160.274 139.342 163.063 132.030 L 168.135 118.735 164.648 115.861 C 155.963 108.703 156.123 93.687 164.963 86.198 C 168.124 83.520 172.667 82.077 178.054 82.039 C 182.501 82.008 184.516 82.575 188.160 84.887 "/></g>
<g fill="#2CA987FF" stroke="#2CA987FF">
<path d="M 283.955 262.028 C 283.326 262.417 283.045 267.584 283.219 275.578 L 283.500 288.500 287.750 288.807 L 292.000 289.115 292.000 278.557 L 292.000 268.000 294.500 268.000 L 297.000 268.000 297.000 278.500 L 297.000 289.000 301.000 289.000 L 305.000 289.000 305.125 280.500 C 305.194 275.825 305.363 271.550 305.500 271.000 C 305.638 270.450 305.806 269.519 305.875 268.930 C 305.944 268.342 307.013 268.005 308.250 268.180 C 310.394 268.485 310.513 268.982 310.785 278.750 L 311.070 289.000 315.035 289.000 L 319.000 289.000 319.000 277.071 C 319.000 267.561 318.681 264.824 317.429 263.571 C 315.511 261.654 310.040 261.519 307.566 263.328 C 306.030 264.452 305.208 264.381 302.244 262.869 C 299.117 261.275 298.375 261.234 295.369 262.490 C 293.516 263.264 292.000 263.520 292.000 263.058 C 292.000 262.018 285.350 261.166 283.955 262.028 "/></g>
<g fill="#2CA987FF" stroke="#2CA987FF">
<path d="M 277.220 43.781 L 264.941 44.062 265.220 56.781 L 265.500 69.500 277.921 69.782 C 287.186 69.993 290.549 69.739 291.156 68.782 C 292.551 66.583 292.188 44.268 290.750 43.857 C 290.063 43.661 283.974 43.626 277.220 43.781 "/></g>
<g fill="#2CA987FF" stroke="#2CA987FF">
<path d="M 102.438 254.034 C 100.490 254.754 100.407 255.515 100.575 271.144 C 100.672 280.140 100.807 287.838 100.876 288.250 C 100.944 288.663 102.778 289.000 104.950 289.000 L 108.900 289.000 109.200 283.250 L 109.500 277.500 115.833 276.996 C 124.072 276.341 125.000 275.105 125.000 264.794 C 125.000 257.046 124.969 256.951 121.750 254.963 C 119.212 253.395 116.963 252.990 111.489 253.117 C 107.632 253.206 103.560 253.619 102.438 254.034 M 115.802 265.317 L 116.104 271.134 112.802 270.817 C 109.681 270.517 109.483 270.263 109.189 266.176 C 108.836 261.265 110.350 258.764 113.412 259.202 C 115.214 259.459 115.541 260.297 115.802 265.317 "/></g>
<g fill="#2CA987FF" stroke="#2CA987FF">
<path d="M 38.000 254.239 C 35.171 255.730 33.777 261.709 34.723 268.286 C 35.447 273.324 36.799 274.010 47.750 274.899 C 49.706 275.057 49.370 282.644 47.373 283.410 C 45.498 284.130 43.000 282.398 43.000 280.378 C 43.000 279.437 41.731 279.000 39.000 279.000 C 35.131 279.000 35.000 279.109 35.000 282.345 C 35.000 287.682 37.332 289.000 46.772 289.000 C 56.750 289.000 58.000 287.824 58.000 278.432 C 58.000 270.957 56.518 269.260 49.595 268.815 C 43.787 268.441 42.059 266.579 43.559 262.312 C 44.885 258.542 47.712 258.113 48.995 261.488 C 49.867 263.780 50.483 264.081 53.748 263.810 C 56.938 263.546 57.545 263.114 57.800 260.922 C 57.968 259.476 57.252 257.298 56.170 255.962 C 54.539 253.947 53.180 253.528 47.370 253.250 C 43.011 253.040 39.586 253.402 38.000 254.239 "/></g>
<g fill="#2CA987FF" stroke="#2CA987FF">
<path d="M 9.224 254.313 C 6.612 255.479 5.921 257.368 5.788 263.714 C 5.604 272.477 6.369 273.346 15.145 274.339 C 20.185 274.910 20.734 275.439 20.195 279.206 C 19.485 284.165 15.837 285.309 14.692 280.931 C 14.297 279.420 13.297 279.000 10.094 279.000 C 5.956 279.000 5.555 279.439 5.978 283.500 C 6.434 287.884 8.790 289.000 17.584 289.000 C 28.170 289.000 29.000 288.273 29.000 279.000 C 29.000 270.483 27.800 269.000 20.907 269.000 C 16.726 269.000 15.796 268.646 14.919 266.722 C 13.662 263.963 15.231 259.000 17.360 259.000 C 18.136 259.000 19.524 260.151 20.447 261.559 C 21.765 263.572 22.803 264.052 25.312 263.809 C 28.073 263.541 28.541 263.081 28.805 260.366 C 29.279 255.491 25.576 253.126 17.663 253.246 C 14.220 253.298 10.423 253.778 9.224 254.313 "/></g>
<g fill="#2CA987FF" stroke="#2CA987FF">
<path d="M 236.872 263.651 C 234.700 266.265 234.366 283.383 236.426 286.527 C 237.935 288.831 238.617 289.000 246.401 289.000 C 257.317 289.000 257.500 288.774 257.500 275.266 C 257.500 262.420 257.133 262.000 245.931 262.000 C 240.007 262.000 237.930 262.378 236.872 263.651 M 249.121 275.489 C 249.012 282.773 248.622 284.000 246.416 284.000 C 244.492 284.000 242.996 279.904 243.015 274.685 C 243.032 270.124 243.699 268.580 246.000 267.775 C 248.545 266.884 249.225 268.566 249.121 275.489 "/></g>
<g fill="#2CA987FF" stroke="#2CA987FF">
<path d="M 160.750 261.724 C 159.238 261.949 158.000 262.569 158.000 263.102 C 158.000 263.704 157.268 263.679 156.066 263.035 C 152.951 261.368 148.174 261.826 146.000 264.000 C 144.287 265.713 144.000 267.333 144.000 275.277 C 144.000 286.570 145.214 289.000 150.857 289.000 C 152.916 289.000 155.140 288.460 155.800 287.800 C 156.733 286.867 157.000 286.867 157.000 287.800 C 157.000 288.557 158.673 289.000 161.528 289.000 L 166.056 289.000 165.778 275.332 C 165.613 267.224 165.093 261.593 164.500 261.490 C 163.950 261.394 162.263 261.499 160.750 261.724 M 157.090 269.250 C 157.139 269.938 157.347 272.300 157.552 274.500 C 158.091 280.284 157.291 283.000 155.048 283.000 C 152.294 283.000 151.975 280.957 152.901 269.250 C 152.956 268.563 153.900 268.000 155.000 268.000 C 156.100 268.000 157.040 268.563 157.090 269.250 "/></g>
<g fill="#2CA987FF" stroke="#2CA987FF">
<path d="M 333.002 261.744 C 325.749 262.381 325.000 263.669 325.000 275.500 C 325.000 288.379 325.516 289.006 336.079 288.985 C 340.160 288.976 344.034 288.630 344.687 288.214 C 346.180 287.265 348.077 282.410 347.269 281.603 C 345.986 280.319 340.075 281.043 339.209 282.590 C 338.675 283.545 337.355 284.045 335.910 283.840 C 333.975 283.567 333.500 282.909 333.500 280.500 L 333.500 277.500 340.750 277.206 L 348.000 276.912 348.000 272.521 C 348.000 265.743 346.654 263.276 342.298 262.066 C 340.209 261.486 338.275 261.087 338.000 261.180 C 337.725 261.273 335.476 261.527 333.002 261.744 M 339.221 268.750 C 339.984 271.694 338.969 273.000 335.917 273.000 C 333.528 273.000 333.000 272.578 333.000 270.667 C 333.000 267.758 333.734 267.000 336.550 267.000 C 337.822 267.000 338.960 267.746 339.221 268.750 "/></g>
<g fill="#2CA987FF" stroke="#2CA987FF">
<path d="M 197.000 261.980 C 189.835 263.044 189.500 263.649 189.500 275.511 C 189.500 288.603 189.839 289.000 201.036 289.000 C 209.328 289.000 212.000 287.580 212.000 283.171 C 212.000 281.371 211.422 281.000 208.622 281.000 C 206.765 281.000 204.666 281.698 203.958 282.551 C 201.976 284.938 197.572 284.006 197.163 281.113 C 196.703 277.866 198.428 277.033 205.643 277.015 C 209.749 277.005 211.951 276.569 212.285 275.700 C 213.216 273.274 211.828 265.509 210.160 263.809 C 208.353 261.968 202.530 261.159 197.000 261.980 M 203.816 270.250 C 204.109 272.795 203.867 273.000 200.566 273.000 C 196.931 273.000 196.288 272.020 197.628 268.528 C 198.037 267.462 199.169 266.998 200.878 267.196 C 202.902 267.431 203.572 268.128 203.816 270.250 "/></g>
<g fill="#9BBBBCFF" stroke="#9BBBBCFF">
<path d="M 292.699 80.634 C 292.315 81.019 292.000 85.983 292.000 91.667 L 292.000 102.000 303.034 102.000 L 314.068 102.000 313.784 91.250 L 313.500 80.500 303.449 80.217 C 297.922 80.062 293.084 80.249 292.699 80.634 M 312.786 91.250 L 313.072 101.000 303.036 101.000 L 293.000 101.000 293.000 90.964 L 293.000 80.928 302.750 81.214 L 312.500 81.500 312.786 91.250 "/></g>
<g fill="#0E5952FF" stroke="#0E5952FF">
<path d="M 293.000 90.964 L 293.000 101.000 303.036 101.000 L 313.072 101.000 312.786 91.250 L 312.500 81.500 302.750 81.214 L 293.000 80.928 293.000 90.964 "/></g>
<g fill="#2CA987FF" stroke="#2CA987FF">
<path d="M 61.788 254.718 C 61.065 257.506 61.970 259.000 64.383 259.000 C 68.534 259.000 69.000 260.634 69.000 275.200 L 69.000 289.000 73.000 289.000 L 77.000 289.000 77.000 275.122 C 77.000 260.366 77.266 259.501 82.000 258.846 C 83.908 258.582 84.500 257.908 84.500 256.000 C 84.500 253.500 84.500 253.500 73.375 253.218 C 63.407 252.966 62.202 253.122 61.788 254.718 "/></g>
<g fill="#2CA987FF" stroke="#2CA987FF">
<path d="M 221.250 253.522 C 220.013 254.397 219.000 256.158 219.000 257.434 C 219.000 258.711 218.325 260.315 217.500 261.000 C 215.609 262.569 215.623 265.918 217.532 268.441 C 218.579 269.825 219.000 273.054 219.000 279.691 L 219.000 289.000 223.000 289.000 L 227.000 289.000 227.000 279.365 C 227.000 270.371 227.167 269.575 229.500 267.412 C 230.875 266.138 232.000 264.408 232.000 263.567 C 232.000 262.726 230.875 261.756 229.500 261.411 C 226.382 260.628 226.389 260.296 229.576 257.342 C 230.993 256.029 231.970 254.403 231.748 253.727 C 231.124 251.830 223.843 251.688 221.250 253.522 "/></g>
<g fill="#2CA987FF" stroke="#2CA987FF">
<path d="M 174.000 257.440 C 174.000 258.298 173.100 259.900 172.000 261.000 C 169.640 263.360 169.379 266.824 171.500 267.638 C 172.631 268.072 173.000 269.895 173.000 275.042 C 173.000 282.048 174.215 286.881 176.313 288.214 C 176.966 288.630 179.188 288.976 181.250 288.985 C 184.543 288.998 185.000 288.708 185.000 286.607 C 185.000 285.291 184.325 283.955 183.500 283.638 C 181.410 282.836 181.321 268.198 183.401 267.399 C 185.685 266.523 186.051 263.098 183.980 261.989 C 182.968 261.448 181.996 259.991 181.820 258.752 C 181.563 256.942 180.763 256.439 177.750 256.190 C 174.886 255.953 174.000 256.248 174.000 257.440 "/></g>
<g fill="#2CA987FF" stroke="#2CA987FF">
<path d="M 130.000 270.443 L 130.000 289.000 133.955 289.000 C 137.634 289.000 137.949 288.774 138.474 285.750 C 138.785 283.963 138.917 275.750 138.769 267.500 L 138.500 252.500 134.250 252.193 L 130.000 251.885 130.000 270.443 "/></g>
<g fill="#2CA987FF" stroke="#2CA987FF">
<path d="M 263.895 262.750 C 263.445 265.960 263.265 284.062 263.661 286.250 C 264.104 288.698 264.590 289.000 268.079 289.000 L 272.000 289.000 272.118 282.750 C 272.184 279.313 272.176 275.988 272.100 275.362 C 271.781 272.702 274.016 269.136 276.196 268.827 C 277.980 268.574 278.571 267.766 278.813 265.250 C 279.166 261.597 278.135 261.210 274.465 263.615 C 272.196 265.102 272.000 265.102 272.000 263.615 C 272.000 262.397 271.015 262.000 268.000 262.000 C 265.800 262.000 263.953 262.338 263.895 262.750 "/></g>
<g fill="#9BBBBCFF" stroke="#9BBBBCFF">
<path d="M 201.079 105.800 C 200.976 108.798 198.413 113.814 195.261 117.185 C 192.270 120.384 192.307 120.607 198.531 136.525 C 200.989 142.812 203.000 148.641 203.000 149.478 C 203.000 150.763 200.973 151.000 190.000 151.000 L 177.000 151.000 177.000 176.000 C 177.000 198.125 176.818 201.000 175.419 201.000 C 173.141 201.000 160.291 194.384 154.942 190.457 C 148.154 185.475 135.098 171.458 129.832 163.500 C 123.963 154.631 117.156 141.522 113.734 132.500 C 110.809 124.786 106.045 108.713 105.921 106.138 C 105.874 105.172 105.641 104.994 105.352 105.706 C 105.083 106.370 106.008 111.095 107.408 116.206 C 116.822 150.576 134.950 178.312 158.036 193.663 C 165.011 198.301 175.837 203.219 177.207 202.372 C 177.643 202.103 178.000 190.659 178.000 176.941 L 178.000 152.000 191.500 152.000 C 198.925 152.000 205.000 151.607 205.000 151.126 C 205.000 150.645 203.501 146.482 201.670 141.876 C 199.838 137.269 197.339 130.769 196.116 127.431 L 193.892 121.362 197.456 116.066 C 201.209 110.488 202.538 106.940 201.677 104.793 C 201.391 104.082 201.122 104.535 201.079 105.800 "/></g>
<g fill="#2CA987FF" stroke="#2CA987FF">
<path d="M 315.751 51.750 C 315.430 52.408 315.513 62.252 315.870 65.794 C 315.966 66.751 317.884 67.011 323.250 66.794 L 330.500 66.500 330.792 58.750 L 331.084 51.000 323.601 51.000 C 319.485 51.000 315.953 51.338 315.751 51.750 "/></g>
<g fill="#0E5952FF" stroke="#0E5952FF">
<path d="M 216.697 331.636 C 216.314 332.020 216.000 336.083 216.000 340.667 C 216.000 348.333 216.160 349.000 218.000 349.000 C 219.556 349.000 220.000 348.333 220.000 346.000 C 220.000 344.350 220.406 343.000 220.902 343.000 C 221.398 343.000 222.275 344.350 222.850 346.000 C 223.549 348.005 224.569 349.000 225.927 349.000 C 227.730 349.000 227.829 348.720 226.818 346.500 C 225.963 344.622 225.968 343.366 226.839 341.453 C 228.444 337.932 228.291 334.486 226.462 332.969 C 224.723 331.525 217.759 330.575 216.697 331.636 M 224.000 337.000 C 224.000 339.333 223.556 340.000 222.000 340.000 C 220.444 340.000 220.000 339.333 220.000 337.000 C 220.000 334.667 220.444 334.000 222.000 334.000 C 223.556 334.000 224.000 334.667 224.000 337.000 "/></g>
<g fill="#0E5952FF" stroke="#0E5952FF">
<path d="M 234.982 336.250 C 234.380 338.588 233.422 341.981 232.853 343.791 C 232.283 345.601 232.093 347.800 232.430 348.677 C 232.987 350.130 233.203 350.127 234.850 348.636 C 236.998 346.692 239.313 346.554 241.968 348.212 C 243.036 348.879 244.186 349.147 244.524 348.809 C 244.863 348.471 244.356 344.550 243.399 340.097 C 241.728 332.317 241.550 332.000 238.868 332.000 C 236.423 332.000 235.941 332.527 234.982 336.250 M 239.985 341.750 C 239.994 343.090 239.393 344.000 238.500 344.000 C 236.942 344.000 236.533 341.382 237.639 338.498 C 238.149 337.169 238.449 337.102 239.124 338.166 C 239.589 338.900 239.976 340.513 239.985 341.750 "/></g>
<g fill="#0E5952FF" stroke="#0E5952FF">
<path d="M 166.352 331.755 C 164.558 332.054 163.885 333.463 162.268 340.306 C 160.707 346.915 160.590 348.562 161.664 348.823 C 162.397 349.001 163.705 348.438 164.570 347.573 C 166.530 345.613 167.456 345.599 169.357 347.500 C 170.182 348.325 171.573 349.000 172.448 349.000 C 174.149 349.000 174.157 349.082 171.379 338.054 C 169.819 331.860 169.339 331.258 166.352 331.755 M 168.930 342.250 C 168.974 343.357 168.265 344.000 167.000 344.000 C 164.706 344.000 164.562 343.240 166.110 339.315 C 167.142 336.699 167.278 336.642 168.040 338.500 C 168.491 339.600 168.891 341.288 168.930 342.250 "/></g>
<g fill="#0E5952FF" stroke="#0E5952FF">
<path d="M 95.345 331.766 C 94.709 332.170 93.310 336.213 92.236 340.750 C 90.339 348.757 90.337 349.000 92.141 349.000 C 93.163 349.000 94.000 348.550 94.000 348.000 C 94.000 347.450 95.350 347.000 97.000 347.000 C 98.650 347.000 100.000 347.450 100.000 348.000 C 100.000 348.550 100.930 349.000 102.067 349.000 C 103.566 349.000 103.993 348.518 103.620 347.250 C 103.337 346.288 102.365 342.576 101.461 339.002 C 99.611 331.693 98.159 329.975 95.345 331.766 M 98.930 342.250 C 98.974 343.357 98.265 344.000 97.000 344.000 C 94.706 344.000 94.562 343.240 96.110 339.315 C 97.142 336.699 97.278 336.642 98.040 338.500 C 98.491 339.600 98.891 341.288 98.930 342.250 "/></g>
<g fill="#0E5952FF" stroke="#0E5952FF">
<path d="M 270.548 332.146 C 270.291 332.891 269.208 336.988 268.142 341.250 C 266.243 348.847 266.242 349.000 268.102 349.000 C 269.146 349.000 270.000 348.550 270.000 348.000 C 270.000 347.450 271.350 347.000 273.000 347.000 C 274.650 347.000 276.000 347.450 276.000 348.000 C 276.000 348.550 276.930 349.000 278.067 349.000 C 279.569 349.000 279.991 348.521 279.611 347.250 C 279.323 346.288 278.338 342.463 277.422 338.750 C 276.506 335.038 275.398 332.000 274.960 332.000 C 274.522 332.000 273.456 331.728 272.590 331.396 C 271.706 331.057 270.812 331.386 270.548 332.146 M 274.930 342.250 C 274.974 343.357 274.265 344.000 273.000 344.000 C 270.706 344.000 270.562 343.240 272.110 339.315 C 273.142 336.699 273.278 336.642 274.040 338.500 C 274.491 339.600 274.891 341.288 274.930 342.250 "/></g>
<g fill="#0E5952FF" stroke="#0E5952FF">
<path d="M 108.000 340.500 C 108.000 348.333 108.157 349.000 110.000 349.000 C 111.713 349.000 112.007 348.318 112.047 344.250 L 112.093 339.500 114.566 344.250 C 118.453 351.717 120.000 350.650 120.000 340.500 C 120.000 333.611 119.716 332.000 118.500 332.000 C 117.389 332.000 117.000 333.167 117.000 336.500 C 117.000 338.975 116.611 341.000 116.136 341.000 C 115.661 341.000 114.498 338.975 113.553 336.500 C 112.342 333.329 111.268 332.000 109.917 332.000 C 108.178 332.000 108.000 332.789 108.000 340.500 "/></g>
<g fill="#0E5952FF" stroke="#0E5952FF">
<path d="M 186.688 331.646 C 186.309 332.024 186.000 335.633 186.000 339.667 C 186.000 346.333 185.818 347.000 184.000 347.000 C 182.178 347.000 182.000 346.333 182.000 339.500 C 182.000 332.667 181.822 332.000 180.000 332.000 C 178.181 332.000 178.000 332.667 178.000 339.378 C 178.000 348.057 178.916 349.262 185.176 348.811 L 189.500 348.500 189.500 340.083 C 189.500 332.297 188.634 329.699 186.688 331.646 "/></g>
<g fill="#0E5952FF" stroke="#0E5952FF">
<path d="M 77.189 332.054 C 75.255 332.829 74.929 333.594 75.189 336.740 C 75.460 340.013 75.921 340.624 78.750 341.457 C 81.194 342.176 82.000 342.983 82.000 344.707 C 82.000 346.079 81.397 347.000 80.500 347.000 C 79.675 347.000 79.000 346.550 79.000 346.000 C 79.000 345.450 78.067 345.000 76.927 345.000 C 75.490 345.000 74.957 345.538 75.190 346.750 C 75.458 348.138 76.560 348.500 80.514 348.500 L 85.500 348.500 85.500 344.000 C 85.500 339.654 85.389 339.489 82.250 339.187 C 79.558 338.927 79.000 338.455 79.000 336.437 C 79.000 333.982 81.290 333.042 82.500 335.000 C 83.445 336.529 86.000 336.189 86.000 334.535 C 86.000 332.972 82.993 330.958 80.816 331.063 C 80.092 331.098 78.460 331.544 77.189 332.054 "/></g>
<g fill="#0E5952FF" stroke="#0E5952FF">
<path d="M 249.808 331.526 C 249.518 331.815 250.203 335.835 251.329 340.458 C 252.927 347.020 253.812 348.979 255.362 349.384 C 256.454 349.670 257.640 349.722 257.999 349.501 C 258.993 348.886 262.415 333.082 261.707 332.374 C 260.068 330.734 258.150 333.271 257.510 337.929 C 256.665 344.069 255.488 344.451 254.596 338.875 C 253.616 332.746 251.632 329.701 249.808 331.526 "/></g>
<g fill="#0E5952FF" stroke="#0E5952FF">
<path d="M 140.425 331.739 C 139.178 332.622 138.520 348.615 139.705 349.257 C 141.072 349.999 149.000 348.836 149.000 347.895 C 149.000 347.403 147.650 347.000 146.000 347.000 C 143.459 347.000 143.000 346.614 143.000 344.475 C 143.000 342.472 143.617 341.827 145.984 341.353 C 149.432 340.664 149.049 339.000 145.441 339.000 C 143.522 339.000 143.000 338.480 143.000 336.566 C 143.000 334.655 143.590 334.065 145.750 333.816 C 147.263 333.642 148.500 333.050 148.500 332.500 C 148.500 331.289 141.935 330.670 140.425 331.739 "/></g>
<g fill="#0E5952FF" stroke="#0E5952FF">
<path d="M 201.538 331.939 C 201.219 332.455 201.755 333.323 202.729 333.868 C 204.099 334.634 204.539 336.288 204.670 341.179 C 204.764 344.656 204.877 347.838 204.920 348.250 C 204.964 348.663 205.900 349.000 207.000 349.000 C 208.822 349.000 209.000 348.333 209.000 341.500 C 209.000 335.500 209.300 334.000 210.500 334.000 C 212.480 334.000 212.425 332.377 210.418 331.607 C 207.982 330.672 202.187 330.888 201.538 331.939 "/></g>
<g fill="#9BBBBCFF" stroke="#9BBBBCFF">
<path d="M 170.750 82.689 C 169.788 82.941 169.000 83.579 169.000 84.109 C 169.000 84.699 169.747 84.671 170.934 84.035 C 173.941 82.426 182.136 82.818 185.929 84.752 C 190.734 87.202 195.053 92.977 195.702 97.819 C 196.617 104.636 195.251 108.817 190.424 113.978 L 185.981 118.728 190.657 131.094 C 193.229 137.895 195.333 144.031 195.333 144.730 C 195.333 145.428 195.708 146.000 196.167 146.000 C 197.341 146.000 197.503 146.546 192.012 132.033 L 187.025 118.850 190.155 116.216 C 203.787 104.745 195.627 81.749 178.054 82.116 C 174.999 82.180 171.713 82.438 170.750 82.689 "/></g>
<g fill="#9BBBBCFF" stroke="#9BBBBCFF">
<path d="M 160.500 47.082 C 149.797 54.972 129.380 65.035 113.750 70.123 L 101.000 74.274 101.157 79.387 L 101.314 84.500 101.907 79.681 L 102.500 74.863 114.083 71.088 C 132.133 65.206 156.880 52.463 167.500 43.581 C 173.146 38.859 168.508 41.179 160.500 47.082 "/></g>
<g fill="#0E5952FF" stroke="#0E5952FF">
<path d="M 126.199 331.767 C 124.489 332.337 124.714 334.000 126.500 334.000 C 127.697 334.000 128.000 335.481 128.000 341.333 C 128.000 349.101 128.353 350.186 130.598 349.324 C 131.626 348.930 132.000 346.813 132.000 341.393 C 132.000 335.488 132.302 334.000 133.500 334.000 C 134.325 334.000 135.000 333.307 135.000 332.459 C 135.000 331.303 134.052 330.975 131.199 331.143 C 129.108 331.267 126.858 331.547 126.199 331.767 "/></g>
<g fill="#0E5952FF" stroke="#0E5952FF">
<path d="M 293.598 331.736 C 293.269 332.064 293.000 336.083 293.000 340.667 C 293.000 348.859 293.042 349.002 295.500 349.111 C 296.875 349.172 298.900 349.272 300.000 349.333 C 303.087 349.505 302.859 347.541 299.750 347.184 C 297.029 346.870 297.000 346.790 297.000 339.541 C 297.000 334.178 296.624 332.070 295.598 331.676 C 294.827 331.380 293.927 331.407 293.598 331.736 "/></g>
<g fill="#0E5952FF" stroke="#0E5952FF">
<path d="M 330.000 33.917 C 330.000 38.254 330.659 38.755 335.609 38.177 C 338.815 37.803 339.000 37.569 339.000 33.891 L 339.000 30.000 334.500 30.000 L 330.000 30.000 330.000 33.917 "/></g>
<g fill="#C1EFE1FF" stroke="#C1EFE1FF">
<path d="M 244.701 268.632 C 243.380 269.954 243.928 281.695 245.367 282.890 C 247.788 284.899 249.128 281.760 248.800 274.847 C 248.574 270.090 248.116 268.447 246.951 268.225 C 246.099 268.063 245.087 268.246 244.701 268.632 M 247.796 275.509 C 247.402 284.178 245.581 284.347 245.204 275.750 C 244.958 270.121 245.173 269.000 246.500 269.000 C 247.822 269.000 248.041 270.100 247.796 275.509 "/></g>
<g fill="#9BBBBCFF" stroke="#9BBBBCFF">
<path d="M 94.024 148.409 C 93.977 150.211 106.262 172.613 110.733 178.878 C 117.764 188.732 127.548 199.546 133.823 204.400 C 136.945 206.816 138.708 208.051 137.741 207.146 C 117.825 188.514 110.961 179.708 99.824 158.500 C 96.647 152.450 94.036 147.909 94.024 148.409 "/></g>
<g fill="#9BBBBCFF" stroke="#9BBBBCFF">
<path d="M 68.220 275.250 L 68.000 290.000 73.000 290.000 L 78.000 290.000 77.780 275.250 L 77.559 260.500 77.252 274.750 L 76.945 289.000 73.000 289.000 L 69.055 289.000 68.748 274.750 L 68.441 260.500 68.220 275.250 "/></g>
<g fill="#0E5952FF" stroke="#0E5952FF">
<path d="M 284.607 333.582 C 283.425 336.662 283.956 347.719 285.342 348.869 C 287.520 350.677 288.000 349.136 288.000 340.333 C 288.000 333.877 287.686 332.000 286.607 332.000 C 285.841 332.000 284.941 332.712 284.607 333.582 "/></g>
<g fill="#9BBBBCFF" stroke="#9BBBBCFF">
<path d="M 84.250 332.013 C 85.213 332.610 86.000 333.752 86.000 334.550 C 86.000 336.193 83.441 336.522 82.500 335.000 C 81.290 333.042 79.000 333.982 79.000 336.437 C 79.000 338.455 79.558 338.927 82.250 339.187 C 85.389 339.489 85.500 339.654 85.500 344.000 L 85.500 348.500 80.514 348.500 C 76.560 348.500 75.458 348.138 75.190 346.750 C 74.957 345.538 75.490 345.000 76.927 345.000 C 78.067 345.000 79.000 345.450 79.000 346.000 C 79.000 346.550 79.675 347.000 80.500 347.000 C 81.325 347.000 81.993 346.213 81.985 345.250 C 81.972 343.754 81.828 343.718 81.000 345.000 C 80.354 346.000 80.026 346.083 80.015 345.250 C 80.007 344.531 78.725 344.000 77.000 344.000 C 74.732 344.000 74.000 344.458 74.000 345.878 C 74.000 348.878 76.464 350.140 81.672 349.808 L 86.500 349.500 86.811 345.176 C 87.167 340.227 85.791 338.000 82.378 338.000 C 80.807 338.000 80.000 337.423 80.000 336.300 C 80.000 334.978 80.267 334.867 81.200 335.800 C 81.860 336.460 83.465 337.000 84.766 337.000 C 86.756 337.000 87.083 336.564 86.816 334.259 C 86.604 332.419 85.842 331.420 84.500 331.222 C 82.672 330.952 82.650 331.020 84.250 332.013 "/></g>
<g fill="#9BBBBCFF" stroke="#9BBBBCFF">
<path d="M 282.000 275.329 L 282.000 289.658 287.437 289.878 L 292.873 290.098 293.187 279.047 C 293.359 272.969 293.163 267.997 292.750 267.998 C 292.338 267.999 292.000 272.751 292.000 278.557 L 292.000 289.115 287.750 288.807 L 283.500 288.500 283.219 275.578 C 283.009 265.912 283.260 262.452 284.219 261.844 C 285.159 261.247 285.034 261.027 283.750 261.015 C 282.164 261.001 282.000 262.343 282.000 275.329 "/></g>
<g fill="#9BBBBCFF" stroke="#9BBBBCFF">
<path d="M 249.500 49.312 L 255.500 51.505 255.778 65.253 L 256.056 79.000 265.945 79.000 C 272.920 79.000 275.982 79.368 276.338 80.250 C 276.639 80.997 276.874 80.795 276.921 79.750 C 276.991 78.195 275.889 78.000 267.028 78.000 L 257.056 78.000 256.778 64.335 L 256.500 50.670 251.500 48.912 C 248.750 47.946 245.825 47.147 245.000 47.137 C 244.175 47.127 246.200 48.106 249.500 49.312 "/></g>
<g fill="#9BBBBCFF" stroke="#9BBBBCFF">
<path d="M 169.489 9.500 C 165.082 13.900 157.742 20.313 153.177 23.750 C 148.612 27.188 145.242 29.996 145.688 29.990 C 147.325 29.971 160.542 19.386 169.104 11.238 L 177.906 2.862 184.574 9.931 C 188.242 13.819 191.665 17.000 192.182 17.000 C 192.698 17.000 189.606 13.513 185.311 9.250 L 177.500 1.500 169.489 9.500 "/></g>
<g fill="#9BBBBCFF" stroke="#9BBBBCFF">
<path d="M 316.750 262.851 C 318.834 264.913 319.000 265.961 319.000 277.039 L 319.000 289.000 315.036 289.000 L 311.072 289.000 310.746 279.250 L 310.419 269.500 310.209 279.750 L 310.000 290.000 315.029 290.000 L 320.058 290.000 319.779 276.870 C 319.507 264.084 319.435 263.699 317.000 262.183 L 314.500 260.625 316.750 262.851 "/></g>
<g fill="#9BBBBCFF" stroke="#9BBBBCFF">
<path d="M 109.691 331.698 C 111.191 331.989 112.414 333.518 113.569 336.542 C 115.552 341.734 117.000 341.481 117.000 335.941 C 117.000 333.105 117.420 332.000 118.500 332.000 C 119.716 332.000 120.000 333.611 120.000 340.500 C 120.000 350.463 118.475 351.706 114.788 344.750 C 112.066 339.616 111.789 340.942 114.474 346.250 C 115.843 348.957 117.014 350.000 118.685 350.000 C 120.942 350.000 121.000 349.764 121.000 340.500 C 121.000 331.033 120.991 331.000 118.500 331.000 C 116.286 331.000 115.995 331.428 115.956 334.750 L 115.912 338.500 113.932 334.750 C 112.490 332.019 111.348 331.037 109.726 331.136 L 107.500 331.272 109.691 331.698 "/></g>
<g fill="#C1EFE1FF" stroke="#C1EFE1FF">
<path d="M 99.667 252.667 C 98.742 253.591 98.823 290.000 99.750 290.001 C 100.163 290.002 100.368 281.693 100.208 271.537 L 99.915 253.071 110.208 252.746 L 120.500 252.422 110.417 252.211 C 104.871 252.095 100.033 252.300 99.667 252.667 "/></g>
<g fill="#9BBBBCFF" stroke="#9BBBBCFF">
<path d="M 173.500 37.610 C 170.641 40.087 170.628 40.134 173.215 38.605 C 174.708 37.722 176.170 37.000 176.465 37.000 C 176.759 37.000 177.000 45.950 177.000 56.889 L 177.000 76.777 180.602 77.453 C 182.583 77.825 184.404 77.929 184.649 77.685 C 184.893 77.440 183.497 76.941 181.547 76.575 L 178.000 75.909 178.000 55.455 C 178.000 44.205 177.663 35.002 177.250 35.005 C 176.838 35.008 175.150 36.180 173.500 37.610 "/></g>
<g fill="#C1EFE1FF" stroke="#C1EFE1FF">
<path d="M 215.750 268.662 C 216.630 269.017 217.000 272.046 217.000 278.883 C 217.000 289.813 217.588 291.000 223.000 291.000 C 228.413 291.000 229.000 289.814 229.000 278.873 C 229.000 270.451 229.235 269.085 230.750 268.689 C 232.086 268.340 231.976 268.205 230.284 268.116 C 228.142 268.004 228.058 268.362 227.784 278.750 L 227.500 289.500 223.000 289.500 L 218.500 289.500 218.216 278.750 C 217.968 269.333 217.720 268.010 216.216 268.079 C 215.173 268.127 214.990 268.356 215.750 268.662 "/></g>
<g fill="#9BBBBCFF" stroke="#9BBBBCFF">
<path d="M 158.125 103.500 C 157.988 106.870 161.574 113.522 164.954 116.167 L 168.158 118.674 163.079 131.989 C 160.286 139.311 158.000 145.460 158.000 145.651 C 158.000 145.843 158.525 146.000 159.167 146.000 C 159.808 146.000 160.094 145.760 159.801 145.467 C 159.507 145.174 161.457 139.227 164.134 132.251 C 166.810 125.276 169.000 119.296 169.000 118.963 C 169.000 118.630 167.032 116.304 164.626 113.793 C 162.091 111.147 159.823 107.605 159.230 105.364 C 158.667 103.239 158.170 102.400 158.125 103.500 "/></g>
<g fill="#9BBBBCFF" stroke="#9BBBBCFF">
<path d="M 314.998 50.750 C 314.996 51.163 318.616 51.353 323.041 51.172 L 331.087 50.845 330.793 58.672 L 330.500 66.500 323.590 66.799 C 318.737 67.010 316.434 66.712 315.855 65.799 C 315.241 64.831 315.027 64.946 315.015 66.250 C 315.002 67.781 316.066 68.000 323.500 68.000 L 332.000 68.000 332.000 59.000 L 332.000 50.000 323.500 50.000 C 318.825 50.000 314.999 50.338 314.998 50.750 "/></g>
<g fill="#9BBBBCFF" stroke="#9BBBBCFF">
<path d="M 264.222 56.750 C 264.453 68.182 264.753 70.500 266.000 70.500 C 267.127 70.500 267.189 70.299 266.250 69.691 C 265.361 69.115 265.000 65.302 265.000 56.472 L 265.000 44.062 277.250 43.747 L 289.500 43.432 276.722 43.216 L 263.944 43.000 264.222 56.750 "/></g>
<g fill="#9BBBBCFF" stroke="#9BBBBCFF">
<path d="M 215.000 340.500 L 215.000 350.000 218.000 350.000 C 220.587 350.000 221.011 349.621 221.079 347.250 L 221.158 344.500 222.162 347.250 C 222.945 349.392 223.812 350.000 226.083 350.000 C 229.340 350.000 229.475 349.757 227.881 346.777 C 227.158 345.426 227.068 343.591 227.628 341.593 L 228.494 338.500 227.087 341.250 C 225.988 343.396 225.929 344.549 226.818 346.500 C 227.829 348.720 227.730 349.000 225.927 349.000 C 224.569 349.000 223.549 348.005 222.850 346.000 C 222.275 344.350 221.398 343.000 220.902 343.000 C 220.406 343.000 220.000 344.350 220.000 346.000 C 220.000 348.368 219.563 349.000 217.929 349.000 C 215.964 349.000 215.874 348.539 216.179 339.998 C 216.356 335.046 216.163 330.996 215.750 330.998 C 215.338 330.999 215.000 335.275 215.000 340.500 "/></g>
<g fill="#9BBBBCFF" stroke="#9BBBBCFF">
<path d="M 108.569 140.000 C 111.366 150.074 124.958 171.668 135.107 182.160 L 142.207 189.500 135.544 182.065 C 127.121 172.663 119.155 160.590 112.823 147.628 C 110.102 142.058 108.188 138.625 108.569 140.000 "/></g>
<g fill="#0E5952FF" stroke="#0E5952FF">
<path d="M 345.384 53.442 C 344.274 56.335 345.475 58.495 348.380 58.828 C 352.001 59.243 352.987 58.218 352.306 54.750 C 351.865 52.502 351.234 52.000 348.852 52.000 C 347.236 52.000 345.691 52.642 345.384 53.442 "/></g>
<g fill="#C1EFE1FF" stroke="#C1EFE1FF">
<path d="M 138.999 270.500 L 138.500 289.500 134.000 290.132 L 129.500 290.765 134.500 290.632 L 139.500 290.500 139.499 271.000 L 139.499 251.500 138.999 270.500 "/></g>
<g fill="#9BBBBCFF" stroke="#9BBBBCFF">
<path d="M 227.228 279.000 L 227.000 289.000 223.000 289.000 L 219.000 289.000 218.773 279.500 L 218.545 270.000 218.523 279.750 L 218.500 289.500 223.000 289.500 L 227.500 289.500 227.478 279.250 L 227.457 269.000 227.228 279.000 "/></g>
<g fill="#9BBBBCFF" stroke="#9BBBBCFF">
<path d="M 296.212 278.805 L 296.000 290.110 300.750 289.805 L 305.500 289.500 305.475 280.750 L 305.450 272.000 305.225 280.500 L 305.000 289.000 301.034 289.000 L 297.068 289.000 296.746 278.250 L 296.425 267.500 296.212 278.805 "/></g>
<g fill="#9BBBBCFF" stroke="#9BBBBCFF">
<path d="M 34.000 282.000 C 34.000 288.561 36.325 290.041 46.250 289.799 L 54.500 289.598 46.528 289.253 C 37.299 288.854 35.000 287.476 35.000 282.345 C 35.000 279.144 35.162 279.000 38.763 279.000 C 41.706 279.000 42.741 279.490 43.513 281.250 C 44.056 282.488 45.175 283.500 46.000 283.500 C 47.101 283.500 47.035 283.309 45.750 282.781 C 44.788 282.386 44.000 281.149 44.000 280.031 C 44.000 278.260 43.359 278.000 39.000 278.000 L 34.000 278.000 34.000 282.000 "/></g>
<g fill="#2CA987FF" stroke="#2CA987FF">
<path d="M 317.763 10.212 C 317.540 10.879 317.555 12.454 317.796 13.712 C 318.422 16.989 323.578 16.989 324.204 13.712 C 324.445 12.454 324.460 10.879 324.237 10.212 C 323.712 8.635 318.288 8.635 317.763 10.212 "/></g>
<g fill="#9BBBBCFF" stroke="#9BBBBCFF">
<path d="M 179.750 331.706 C 181.843 332.109 182.000 332.659 182.000 339.570 C 182.000 346.235 182.198 347.000 183.924 347.000 C 185.635 347.000 185.884 346.115 186.174 338.998 C 186.353 334.596 186.163 330.996 185.750 330.998 C 185.338 330.999 185.000 334.375 185.000 338.500 C 185.000 342.833 184.578 346.000 184.000 346.000 C 183.422 346.000 183.000 342.833 183.000 338.500 L 183.000 331.000 180.250 331.136 C 177.892 331.253 177.821 331.334 179.750 331.706 "/></g>
<g fill="#9BBBBCFF" stroke="#9BBBBCFF">
<path d="M 165.802 274.941 L 166.104 288.886 161.302 289.263 L 156.500 289.640 161.750 289.820 L 167.000 290.000 167.000 275.500 C 167.000 267.525 166.663 260.999 166.250 260.998 C 165.838 260.997 165.636 267.272 165.802 274.941 "/></g>
<g fill="#9BBBBCFF" stroke="#9BBBBCFF">
<path d="M 182.199 275.781 C 182.044 281.462 182.330 283.189 183.500 283.638 C 184.325 283.955 185.000 285.291 185.000 286.607 C 185.000 288.708 184.543 288.998 181.250 288.985 C 176.735 288.966 175.410 288.221 174.113 284.972 C 173.160 282.583 173.125 282.574 173.063 284.727 C 172.975 287.839 176.973 290.202 181.674 289.815 C 185.182 289.526 185.526 289.230 185.813 286.250 C 186.043 283.872 185.719 283.000 184.607 283.000 C 183.419 283.000 183.012 281.418 182.743 275.750 L 182.397 268.500 182.199 275.781 "/></g>
<g fill="#C1EFE1FF" stroke="#C1EFE1FF">
<path d="M 60.406 253.385 C 60.101 254.180 60.042 256.107 60.276 257.666 C 60.633 260.049 60.724 259.904 60.850 256.750 L 61.000 253.000 73.000 253.000 L 85.000 253.000 85.200 256.500 C 85.395 259.905 85.401 259.899 85.450 256.250 L 85.500 252.500 73.230 252.219 C 63.263 251.991 60.857 252.210 60.406 253.385 "/></g>
<g fill="#9BBBBCFF" stroke="#9BBBBCFF">
<path d="M 329.000 34.000 C 329.000 38.125 329.306 38.986 330.750 38.921 C 331.795 38.874 331.997 38.639 331.250 38.338 C 330.549 38.055 330.000 36.114 330.000 33.917 L 330.000 30.000 334.500 30.000 L 339.000 30.000 339.000 33.937 C 339.000 37.629 338.798 37.898 335.750 38.277 C 332.550 38.674 332.558 38.682 336.250 38.840 L 340.000 39.000 340.000 34.000 L 340.000 29.000 334.500 29.000 L 329.000 29.000 329.000 34.000 "/></g>
<g fill="#C1EFE1FF" stroke="#C1EFE1FF">
<path d="M 159.654 145.250 C 160.180 146.100 194.370 146.296 195.213 145.454 C 195.513 145.154 187.531 144.816 177.475 144.704 C 167.419 144.592 159.399 144.838 159.654 145.250 "/></g>
<g fill="#C1EFE1FF" stroke="#C1EFE1FF">
<path d="M 306.485 269.250 C 306.237 269.938 305.913 274.775 305.767 280.000 L 305.500 289.500 301.000 290.100 C 296.650 290.680 296.622 290.705 300.168 290.850 C 306.887 291.125 307.000 290.934 307.000 279.326 C 307.000 269.115 307.051 268.881 309.125 269.540 C 310.555 269.994 311.027 269.852 310.566 269.107 C 309.642 267.612 307.045 267.703 306.485 269.250 "/></g>
<g fill="#C1EFE1FF" stroke="#C1EFE1FF">
<path d="M 78.220 274.750 L 78.441 289.500 78.747 275.314 L 79.054 261.128 81.777 260.714 C 84.278 260.333 84.235 260.287 81.250 260.150 L 78.000 260.000 78.220 274.750 "/></g>
<g fill="#C1EFE1FF" stroke="#C1EFE1FF">
<path d="M 64.223 260.714 L 66.946 261.128 67.253 275.314 L 67.559 289.500 67.780 274.750 L 68.000 260.000 64.750 260.150 C 61.765 260.287 61.722 260.333 64.223 260.714 "/></g>
<g fill="#9BBBBCFF" stroke="#9BBBBCFF">
<path d="M 248.183 134.500 C 243.376 145.512 241.092 150.312 237.758 156.407 C 235.680 160.205 234.131 163.464 234.315 163.649 C 234.860 164.193 243.394 148.049 246.288 141.000 C 249.011 134.368 250.559 129.055 248.183 134.500 "/></g>
<g fill="#9BBBBCFF" stroke="#9BBBBCFF">
<path d="M 189.500 339.748 L 189.500 348.500 185.176 348.811 C 182.644 348.993 180.194 348.579 179.263 347.811 C 177.929 346.710 177.753 346.740 178.166 348.000 C 178.786 349.897 187.554 350.615 189.578 348.936 C 190.600 348.087 191.000 345.401 191.000 339.378 C 191.000 334.770 190.663 330.999 190.250 330.998 C 189.838 330.998 189.500 334.935 189.500 339.748 "/></g>
<g fill="#9BBBBCFF" stroke="#9BBBBCFF">
<path d="M 229.601 169.599 C 228.038 172.069 223.392 177.669 219.276 182.045 C 215.160 186.420 212.218 190.000 212.738 190.000 C 214.770 190.000 233.952 166.619 232.836 165.503 C 232.619 165.286 231.163 167.129 229.601 169.599 "/></g>
<g fill="#9BBBBCFF" stroke="#9BBBBCFF">
<path d="M 245.599 175.641 C 243.453 178.863 238.797 185.100 235.253 189.500 C 231.577 194.063 230.633 195.567 233.056 193.000 C 238.537 187.192 248.847 173.380 249.215 171.351 C 249.372 170.488 247.744 172.418 245.599 175.641 "/></g>
<g fill="#9BBBBCFF" stroke="#9BBBBCFF">
<path d="M 213.000 51.633 C 213.000 52.335 228.196 59.356 236.291 62.393 C 240.026 63.794 242.833 64.539 242.529 64.047 C 242.225 63.555 239.619 62.382 236.738 61.439 C 233.857 60.496 227.338 57.793 222.250 55.431 C 217.163 53.069 213.000 51.360 213.000 51.633 "/></g>
<g fill="#9BBBBCFF" stroke="#9BBBBCFF">
<path d="M 197.000 20.958 C 200.962 24.561 216.303 34.983 219.877 36.500 C 222.433 37.585 223.034 38.019 208.500 28.288 C 204.100 25.343 198.925 21.772 197.000 20.354 L 193.500 17.775 197.000 20.958 "/></g>
<g fill="#C1EFE1FF" stroke="#C1EFE1FF">
<path d="M 278.499 42.734 C 291.088 43.035 292.012 43.190 292.179 45.028 C 292.301 46.378 292.380 46.290 292.429 44.750 C 292.499 42.524 292.351 42.500 278.749 42.456 L 264.997 42.412 278.499 42.734 "/></g>
<g fill="#9BBBBCFF" stroke="#9BBBBCFF">
<path d="M 263.079 262.750 C 263.126 263.795 263.361 263.997 263.662 263.250 C 263.945 262.549 265.886 262.000 268.083 262.000 C 271.022 262.000 272.000 262.403 272.000 263.615 C 272.000 265.102 272.196 265.102 274.465 263.615 C 278.219 261.155 279.189 261.586 278.846 265.564 C 278.677 267.524 278.868 268.799 279.270 268.397 C 279.671 267.995 280.000 266.167 280.000 264.333 C 280.000 260.758 278.550 260.100 274.934 262.035 C 273.601 262.749 273.000 262.749 273.000 262.035 C 273.000 261.460 270.780 261.000 268.000 261.000 C 263.875 261.000 263.014 261.306 263.079 262.750 "/></g>
<g fill="#9BBBBCFF" stroke="#9BBBBCFF">
<path d="M 344.394 52.416 C 344.095 53.194 343.997 55.107 344.175 56.666 C 344.468 59.224 344.913 59.530 348.750 59.807 C 351.088 59.977 353.000 59.752 353.001 59.307 C 353.001 58.863 351.314 58.500 349.251 58.500 C 345.750 58.500 345.500 58.300 345.500 55.500 C 345.500 52.862 345.882 52.463 348.673 52.192 C 351.311 51.937 351.920 52.274 352.287 54.192 C 352.678 56.242 352.743 56.192 352.864 53.750 C 352.991 51.182 352.733 51.000 348.969 51.000 C 346.415 51.000 344.738 51.519 344.394 52.416 "/></g>
<g fill="#C1EFE1FF" stroke="#C1EFE1FF">
<path d="M 198.000 280.393 C 198.000 281.752 198.756 283.074 199.750 283.452 C 201.153 283.986 201.252 283.869 200.250 282.859 C 198.169 280.763 198.816 279.000 201.667 279.000 C 203.133 279.000 204.017 279.317 203.630 279.703 C 203.243 280.090 204.962 280.282 207.450 280.129 C 215.143 279.656 213.672 278.000 205.559 278.000 C 198.253 278.000 198.000 278.080 198.000 280.393 "/></g>
<g fill="#9BBBBCFF" stroke="#9BBBBCFF">
<path d="M 112.750 259.656 C 114.714 260.078 115.000 260.766 115.000 265.070 C 115.000 269.662 114.829 270.000 112.500 270.000 C 110.235 270.000 109.980 269.578 109.792 265.500 L 109.583 261.000 109.542 265.750 C 109.501 270.403 109.567 270.506 112.802 270.817 L 116.104 271.134 115.802 265.317 C 115.521 259.911 115.323 259.488 113.000 259.336 C 110.797 259.192 110.767 259.230 112.750 259.656 "/></g>
<g fill="#9BBBBCFF" stroke="#9BBBBCFF">
<path d="M 295.750 331.662 C 296.591 332.002 297.000 334.572 297.000 339.517 C 297.000 346.792 297.028 346.870 299.750 347.184 C 301.297 347.362 302.391 348.047 302.250 348.750 C 302.113 349.438 302.483 350.000 303.073 350.000 C 305.493 350.000 303.345 346.484 300.741 346.184 C 298.027 345.870 298.000 345.794 298.000 338.434 C 298.000 331.991 297.767 331.011 296.250 331.079 C 295.205 331.126 295.003 331.361 295.750 331.662 "/></g>
<g fill="#9BBBBCFF" stroke="#9BBBBCFF">
<path d="M 274.142 331.668 C 275.220 331.955 276.350 334.404 277.435 338.802 C 278.344 342.486 279.323 346.288 279.611 347.250 C 279.991 348.521 279.569 349.000 278.067 349.000 C 276.930 349.000 275.933 348.550 275.850 348.000 C 275.768 347.450 275.655 347.563 275.600 348.250 C 275.545 348.938 276.799 349.648 278.387 349.830 C 280.976 350.125 281.212 349.918 280.665 347.830 C 280.329 346.548 279.285 342.238 278.344 338.250 C 276.883 332.056 276.333 331.017 274.567 331.116 C 273.044 331.201 272.932 331.347 274.142 331.668 "/></g>
<g fill="#9BBBBCFF" stroke="#9BBBBCFF">
<path d="M 109.667 277.667 C 109.300 278.033 109.000 280.733 109.000 283.667 L 109.000 289.000 105.000 289.000 C 102.800 289.000 100.933 288.550 100.850 288.000 C 100.768 287.450 100.655 287.563 100.600 288.250 C 100.536 289.050 102.209 289.610 105.250 289.805 L 110.000 290.110 110.000 284.118 L 110.000 278.127 113.250 277.723 L 116.500 277.320 113.417 277.160 C 111.721 277.072 110.033 277.300 109.667 277.667 "/></g>
<g fill="#9BBBBCFF" stroke="#9BBBBCFF">
<path d="M 26.420 255.116 C 28.497 256.750 29.040 257.944 28.805 260.366 C 28.552 262.968 28.023 263.555 25.690 263.822 C 24.144 263.999 22.231 263.607 21.440 262.950 C 20.287 261.994 20.000 262.079 20.000 263.378 C 20.000 264.658 21.055 265.000 25.000 265.000 L 30.000 265.000 30.000 261.000 C 30.000 257.029 27.414 253.000 24.865 253.000 C 24.241 253.000 24.941 253.952 26.420 255.116 "/></g>
<g fill="#9BBBBCFF" stroke="#9BBBBCFF">
<path d="M 283.543 331.931 C 283.226 332.443 283.425 333.144 283.984 333.490 C 284.543 333.835 285.000 333.641 285.000 333.059 C 285.000 332.477 285.707 332.000 286.571 332.000 C 287.906 332.000 288.094 333.350 287.821 341.002 C 287.644 345.954 287.838 350.004 288.250 350.002 C 288.663 350.001 289.000 345.725 289.000 340.500 C 289.000 331.095 288.976 331.000 286.559 331.000 C 285.216 331.000 283.859 331.419 283.543 331.931 "/></g>
<g fill="#9BBBBCFF" stroke="#9BBBBCFF">
<path d="M 98.658 331.768 C 99.296 332.173 100.557 335.429 101.461 339.002 C 102.365 342.576 103.337 346.288 103.620 347.250 C 103.993 348.518 103.566 349.000 102.067 349.000 C 100.930 349.000 99.933 348.550 99.850 348.000 C 99.768 347.450 99.655 347.563 99.600 348.250 C 99.545 348.938 100.799 349.648 102.387 349.830 C 104.976 350.125 105.212 349.918 104.665 347.830 C 104.329 346.548 103.285 342.238 102.344 338.250 C 101.117 333.045 100.192 331.004 99.067 331.015 C 98.012 331.026 97.878 331.271 98.658 331.768 "/></g>
<g fill="#9BBBBCFF" stroke="#9BBBBCFF">
<path d="M 5.000 285.287 C 5.000 285.636 5.985 286.840 7.189 287.961 C 9.027 289.674 10.706 290.000 17.689 290.000 C 25.050 290.000 26.228 289.743 27.994 287.750 L 29.988 285.500 27.898 287.250 C 26.285 288.600 23.959 289.000 17.718 289.000 C 10.789 289.000 9.297 288.688 7.314 286.826 C 6.042 285.630 5.000 284.937 5.000 285.287 "/></g>
<g fill="#9BBBBCFF" stroke="#9BBBBCFF">
<path d="M 348.180 272.706 L 348.000 276.912 340.750 277.206 C 333.960 277.481 333.505 277.643 333.571 279.750 C 333.623 281.373 333.693 281.443 333.821 280.000 C 333.983 278.192 334.726 278.000 341.555 278.000 L 349.110 278.000 348.735 273.250 L 348.360 268.500 348.180 272.706 "/></g>
<g fill="#9BBBBCFF" stroke="#9BBBBCFF">
<path d="M 15.636 268.221 C 15.901 268.649 18.229 269.007 20.809 269.015 C 27.595 269.037 28.410 269.893 29.093 277.712 L 29.685 284.500 29.843 278.441 C 30.056 270.238 28.818 268.748 21.193 268.018 C 17.872 267.701 15.371 267.792 15.636 268.221 "/></g>
<g fill="#9BBBBCFF" stroke="#9BBBBCFF">
<path d="M 175.507 26.989 C 175.163 27.545 175.543 27.729 176.377 27.409 C 177.285 27.061 181.278 29.616 186.679 34.000 C 191.531 37.938 196.400 41.598 197.500 42.135 C 198.600 42.671 198.154 42.073 196.509 40.805 C 194.865 39.537 190.145 35.688 186.021 32.250 C 178.573 26.041 176.678 25.093 175.507 26.989 "/></g>
<g fill="#9BBBBCFF" stroke="#9BBBBCFF">
<path d="M 269.784 332.000 C 269.399 332.825 268.367 336.425 267.490 340.000 C 266.612 343.575 265.663 347.288 265.380 348.250 C 264.989 349.580 265.452 350.000 267.310 350.000 C 268.655 350.000 270.315 349.325 271.000 348.500 C 271.860 347.464 271.898 347.000 271.122 347.000 C 270.505 347.000 270.000 347.450 270.000 348.000 C 270.000 348.550 269.158 349.000 268.128 349.000 C 266.316 349.000 266.324 348.703 268.369 339.750 C 269.532 334.663 270.168 331.175 269.784 332.000 "/></g>
<g fill="#9BBBBCFF" stroke="#9BBBBCFF">
<path d="M 135.000 332.441 C 135.000 333.298 134.325 334.000 133.500 334.000 C 132.301 334.000 132.000 335.491 132.000 341.417 C 132.000 346.414 131.592 348.998 130.750 349.338 C 130.003 349.639 130.205 349.874 131.250 349.921 C 132.768 349.990 133.000 349.006 133.000 342.500 C 133.000 336.756 133.326 335.000 134.393 335.000 C 136.089 335.000 137.287 332.296 135.956 331.473 C 135.430 331.148 135.000 331.584 135.000 332.441 "/></g>
<g fill="#9BBBBCFF" stroke="#9BBBBCFF">
<path d="M 124.000 333.000 C 124.000 334.111 124.667 335.000 125.500 335.000 C 126.700 335.000 127.000 336.500 127.000 342.500 C 127.000 346.625 127.338 350.001 127.750 350.002 C 128.163 350.004 128.353 346.404 128.174 342.002 C 127.925 335.899 127.510 334.000 126.424 334.000 C 124.668 334.000 124.545 332.350 126.250 331.662 C 126.997 331.361 126.795 331.126 125.750 331.079 C 124.640 331.029 124.000 331.732 124.000 333.000 "/></g>
<g fill="#9BBBBCFF" stroke="#9BBBBCFF">
<path d="M 272.196 282.750 L 272.000 289.000 268.073 289.000 C 265.175 289.000 264.027 288.542 263.689 287.250 C 263.345 285.933 263.203 286.057 263.116 287.750 C 263.010 289.801 263.445 290.000 268.046 290.000 L 273.091 290.000 272.742 283.250 L 272.392 276.500 272.196 282.750 "/></g>
<g fill="#9BBBBCFF" stroke="#9BBBBCFF">
<path d="M 220.000 337.000 C 220.000 339.333 220.444 340.000 222.000 340.000 C 223.556 340.000 224.000 339.333 224.000 337.000 C 224.000 334.667 223.556 334.000 222.000 334.000 C 220.444 334.000 220.000 334.667 220.000 337.000 M 223.000 337.000 C 223.000 338.100 222.550 339.000 222.000 339.000 C 221.450 339.000 221.000 338.100 221.000 337.000 C 221.000 335.900 221.450 335.000 222.000 335.000 C 222.550 335.000 223.000 335.900 223.000 337.000 "/></g>
<g fill="#9BBBBCFF" stroke="#9BBBBCFF">
<path d="M 169.944 31.876 C 168.050 33.428 162.945 37.240 158.601 40.349 C 154.256 43.457 151.115 46.000 151.620 46.000 C 152.782 46.000 174.254 29.921 173.757 29.424 C 173.554 29.221 171.839 30.325 169.944 31.876 "/></g>
<g fill="#9BBBBCFF" stroke="#9BBBBCFF">
<path d="M 91.068 341.587 C 90.340 344.839 89.529 348.063 89.266 348.750 C 88.948 349.579 89.797 350.000 91.786 350.000 C 93.530 350.000 95.027 349.372 95.362 348.500 C 95.678 347.675 95.501 347.000 94.969 347.000 C 94.436 347.000 94.000 347.450 94.000 348.000 C 94.000 348.550 93.143 349.000 92.095 349.000 C 90.275 349.000 90.255 348.751 91.649 343.412 C 92.452 340.339 92.947 337.341 92.750 336.749 C 92.553 336.158 91.796 338.335 91.068 341.587 "/></g>
<g fill="#9BBBBCFF" stroke="#9BBBBCFF">
<path d="M 209.956 287.553 C 208.881 288.849 206.897 289.100 199.563 288.871 C 194.579 288.715 191.324 288.905 192.332 289.293 C 195.716 290.599 208.378 290.029 210.427 288.479 C 211.487 287.677 212.113 286.780 211.819 286.486 C 211.526 286.192 210.687 286.672 209.956 287.553 "/></g>
<g fill="#9BBBBCFF" stroke="#9BBBBCFF">
<path d="M 141.463 31.891 C 140.933 32.394 136.225 35.141 131.000 37.995 C 125.775 40.850 122.400 42.896 123.500 42.543 C 126.927 41.442 144.258 31.586 143.317 31.272 C 142.826 31.109 141.992 31.387 141.463 31.891 "/></g>
<g fill="#9BBBBCFF" stroke="#9BBBBCFF">
<path d="M 143.136 344.250 C 143.016 346.669 143.361 347.000 146.000 347.000 C 150.304 347.000 149.708 348.805 145.250 349.272 L 141.500 349.664 145.750 349.832 C 149.389 349.976 150.000 349.713 150.000 348.000 C 150.000 346.455 149.333 346.000 147.070 346.000 C 144.826 346.000 144.038 345.473 143.706 343.750 C 143.334 341.821 143.253 341.892 143.136 344.250 "/></g>
<g fill="#9BBBBCFF" stroke="#9BBBBCFF">
<path d="M 148.250 332.250 C 148.391 332.953 147.297 333.638 145.750 333.816 C 143.631 334.060 143.000 334.665 143.000 336.453 C 143.000 338.266 143.655 338.869 146.000 339.213 C 147.650 339.455 149.000 339.282 149.000 338.827 C 149.000 338.372 147.875 338.000 146.500 338.000 C 143.036 338.000 143.247 335.220 146.741 334.816 C 149.345 334.516 151.493 331.000 149.073 331.000 C 148.483 331.000 148.113 331.563 148.250 332.250 "/></g>
<g fill="#9BBBBCFF" stroke="#9BBBBCFF">
<path d="M 347.121 284.000 C 346.761 287.565 345.041 288.503 337.788 289.088 L 330.500 289.677 337.027 289.838 C 344.604 290.026 348.384 288.189 347.693 284.653 C 347.462 283.469 347.204 283.175 347.121 284.000 "/></g>
<g fill="#9BBBBCFF" stroke="#9BBBBCFF">
<path d="M 235.246 265.315 C 234.526 266.942 234.070 271.584 234.165 276.315 L 234.330 284.500 234.990 275.000 C 235.354 269.775 235.840 264.825 236.071 264.000 C 236.303 263.175 235.931 263.767 235.246 265.315 "/></g>
<g fill="#9BBBBCFF" stroke="#9BBBBCFF">
<path d="M 153.550 198.909 C 155.258 200.542 167.451 206.840 169.500 207.147 C 170.600 207.312 169.414 206.484 166.863 205.307 C 164.313 204.131 160.385 202.005 158.133 200.584 C 154.073 198.021 151.724 197.162 153.550 198.909 "/></g>
<g fill="#9BBBBCFF" stroke="#9BBBBCFF">
<path d="M 138.500 52.558 C 133.000 55.534 128.900 57.975 129.389 57.984 C 130.686 58.007 150.210 47.556 149.283 47.335 C 148.852 47.232 144.000 49.583 138.500 52.558 "/></g>
<g fill="#C1EFE1FF" stroke="#C1EFE1FF">
<path d="M 339.803 279.286 C 344.404 280.022 346.416 279.984 347.253 279.147 C 348.116 278.284 346.553 278.035 340.950 278.139 L 333.500 278.278 339.803 279.286 "/></g>
<g fill="#C1EFE1FF" stroke="#C1EFE1FF">
<path d="M 247.975 66.658 C 248.560 66.948 249.000 70.972 249.000 76.024 C 249.000 80.896 249.338 85.092 249.750 85.349 C 250.163 85.606 250.275 81.505 250.000 76.237 C 249.653 69.599 249.109 66.581 248.225 66.404 C 247.524 66.264 247.411 66.379 247.975 66.658 "/></g>
<g fill="#9BBBBCFF" stroke="#9BBBBCFF">
<path d="M 233.579 337.624 C 232.664 341.268 232.105 344.439 232.338 344.671 C 232.570 344.903 233.064 343.835 233.435 342.297 C 235.875 332.197 235.906 332.141 239.272 331.722 L 242.500 331.320 238.872 331.160 L 235.243 331.000 233.579 337.624 "/></g>
<g fill="#9BBBBCFF" stroke="#9BBBBCFF">
<path d="M 141.000 209.646 C 141.000 210.656 155.091 219.454 158.500 220.574 C 159.600 220.935 156.935 219.153 152.578 216.614 C 148.221 214.075 143.833 211.254 142.828 210.344 C 141.822 209.434 141.000 209.120 141.000 209.646 "/></g>
<g fill="#9BBBBCFF" stroke="#9BBBBCFF">
<path d="M 165.478 85.836 C 161.991 88.706 159.196 93.416 158.537 97.534 C 157.969 101.082 158.111 100.921 159.879 96.009 C 161.011 92.866 163.210 89.308 165.023 87.688 C 168.437 84.638 168.817 83.088 165.478 85.836 "/></g>
<g fill="#9BBBBCFF" stroke="#9BBBBCFF">
<path d="M 190.318 80.987 C 192.952 82.657 196.343 86.048 198.013 88.682 C 201.121 93.582 202.040 93.885 199.585 89.200 C 197.962 86.102 192.526 80.766 189.316 79.120 C 185.081 76.949 185.665 78.036 190.318 80.987 "/></g>
<g fill="#9BBBBCFF" stroke="#9BBBBCFF">
<path d="M 165.630 340.250 C 164.715 343.665 164.838 344.000 167.000 344.000 C 169.022 344.000 169.503 342.474 168.393 339.582 C 167.531 337.335 166.334 337.624 165.630 340.250 "/></g>
<g fill="#9BBBBCFF" stroke="#9BBBBCFF">
<path d="M 95.630 340.250 C 94.715 343.665 94.838 344.000 97.000 344.000 C 99.022 344.000 99.503 342.474 98.393 339.582 C 97.531 337.335 96.334 337.624 95.630 340.250 "/></g>
<g fill="#9BBBBCFF" stroke="#9BBBBCFF">
<path d="M 243.503 339.750 C 243.776 341.538 244.281 344.350 244.625 346.000 C 245.303 349.253 243.544 350.136 241.141 347.750 C 240.131 346.748 240.014 346.847 240.548 348.250 C 240.926 349.244 242.248 350.000 243.607 350.000 C 246.445 350.000 246.587 348.617 244.483 341.500 C 243.670 338.750 243.229 337.963 243.503 339.750 "/></g>
<g fill="#9BBBBCFF" stroke="#9BBBBCFF">
<path d="M 143.792 327.067 C 142.852 328.309 142.316 329.703 142.601 330.163 C 143.638 331.842 145.914 330.930 148.000 328.000 C 149.175 326.350 149.764 325.000 149.309 325.000 C 148.853 325.000 147.919 325.900 147.232 327.000 C 145.577 329.651 143.837 329.583 144.770 326.904 C 145.456 324.935 145.396 324.945 143.792 327.067 "/></g>
<g fill="#9BBBBCFF" stroke="#9BBBBCFF">
<path d="M 208.396 213.004 C 207.802 213.598 203.983 215.853 199.908 218.016 C 195.834 220.178 192.881 221.959 193.347 221.974 C 195.098 222.028 210.066 213.698 209.777 212.831 C 209.611 212.333 208.989 212.411 208.396 213.004 "/></g>
<g fill="#C1EFE1FF" stroke="#C1EFE1FF">
<path d="M 15.418 261.353 C 15.101 262.179 14.990 263.900 15.171 265.177 C 15.450 267.147 16.070 267.492 19.250 267.450 C 22.899 267.401 22.905 267.395 19.500 267.200 C 16.322 267.018 16.000 266.724 16.000 264.000 C 16.000 260.885 18.838 259.540 19.167 262.500 C 19.258 263.326 19.371 263.220 19.417 262.264 C 19.521 260.084 16.196 259.326 15.418 261.353 "/></g>
<g fill="#9BBBBCFF" stroke="#9BBBBCFF">
<path d="M 145.816 262.344 C 144.890 263.048 143.855 264.946 143.517 266.562 L 142.901 269.500 144.388 266.285 C 145.967 262.870 149.217 261.426 153.488 262.242 C 154.836 262.500 155.702 262.326 155.411 261.856 C 154.603 260.548 147.717 260.898 145.816 262.344 "/></g>
<g fill="#9BBBBCFF" stroke="#9BBBBCFF">
<path d="M 77.667 54.667 C 77.300 55.033 77.088 58.746 77.196 62.917 L 77.392 70.500 77.746 63.542 C 77.941 59.715 78.583 56.002 79.173 55.292 C 80.263 53.978 78.915 53.419 77.667 54.667 "/></g>
<g fill="#C1EFE1FF" stroke="#C1EFE1FF">
<path d="M 184.307 282.642 C 185.653 283.034 186.036 283.976 185.807 286.334 C 185.541 289.075 185.030 289.588 182.000 290.156 L 178.500 290.812 182.500 290.656 C 186.472 290.501 186.500 290.472 186.500 286.514 C 186.500 283.263 186.131 282.489 184.500 282.321 C 182.839 282.150 182.806 282.204 184.307 282.642 "/></g>
<g fill="#C1EFE1FF" stroke="#C1EFE1FF">
<path d="M 170.975 268.658 C 171.539 268.938 172.101 272.729 172.224 277.083 L 172.447 285.000 172.474 276.833 C 172.492 270.999 172.136 268.593 171.225 268.408 C 170.524 268.266 170.411 268.379 170.975 268.658 "/></g>
<g fill="#C1EFE1FF" stroke="#C1EFE1FF">
<path d="M 44.000 264.000 C 44.000 267.984 44.015 267.999 47.750 267.840 C 51.442 267.682 51.450 267.674 48.250 267.277 C 45.433 266.927 45.000 266.491 45.000 264.006 C 45.000 261.828 45.541 261.035 47.250 260.706 C 49.179 260.334 49.108 260.253 46.750 260.136 C 44.186 260.009 44.000 260.270 44.000 264.000 "/></g>
<g fill="#9BBBBCFF" stroke="#9BBBBCFF">
<path d="M 249.656 337.500 C 251.966 347.650 252.689 349.497 254.315 349.417 C 255.242 349.371 255.397 349.258 254.659 349.167 C 253.888 349.071 252.779 346.557 252.048 343.250 C 251.350 340.088 250.372 336.825 249.875 336.000 C 249.286 335.021 249.210 335.543 249.656 337.500 "/></g>
<g fill="#9BBBBCFF" stroke="#9BBBBCFF">
<path d="M 217.792 206.292 C 214.107 209.116 211.277 211.610 211.502 211.835 C 211.726 212.060 214.876 209.884 218.500 207.000 C 222.124 204.116 224.955 201.622 224.790 201.457 C 224.625 201.292 221.476 203.468 217.792 206.292 "/></g>
<g fill="#9BBBBCFF" stroke="#9BBBBCFF">
<path d="M 202.732 282.000 C 201.790 283.100 201.410 284.000 201.887 284.000 C 202.365 284.000 203.315 283.325 204.000 282.500 C 205.506 280.686 211.632 280.502 212.338 282.250 C 212.639 282.997 212.874 282.795 212.921 281.750 C 213.041 279.097 205.049 279.294 202.732 282.000 "/></g>
<g fill="#9BBBBCFF" stroke="#9BBBBCFF">
<path d="M 212.116 275.704 C 212.042 276.474 209.566 277.035 205.250 277.258 L 198.500 277.608 205.823 277.804 C 212.358 277.979 213.097 277.811 212.689 276.250 C 212.438 275.288 212.180 275.042 212.116 275.704 "/></g>
<g fill="#9BBBBCFF" stroke="#9BBBBCFF">
<path d="M 5.102 268.250 C 4.954 272.232 8.182 275.027 12.750 274.875 L 16.500 274.750 12.269 274.060 C 7.226 273.238 6.991 273.041 5.986 268.801 C 5.245 265.669 5.199 265.641 5.102 268.250 "/></g>
<g fill="#9BBBBCFF" stroke="#9BBBBCFF">
<path d="M 125.118 266.000 C 124.929 270.675 125.073 273.780 125.437 272.901 C 125.800 272.021 125.955 268.196 125.780 264.401 L 125.462 257.500 125.118 266.000 "/></g>
<g fill="#9BBBBCFF" stroke="#9BBBBCFF">
<path d="M 183.000 224.568 C 178.875 225.839 176.240 226.905 177.145 226.939 C 179.231 227.016 192.845 222.795 191.500 222.488 C 190.950 222.362 187.125 223.298 183.000 224.568 "/></g>
<g fill="#9BBBBCFF" stroke="#9BBBBCFF">
<path d="M 84.628 120.904 C 85.293 124.687 88.823 135.074 88.908 133.500 C 88.938 132.950 87.852 129.125 86.496 125.000 C 85.139 120.875 84.299 119.032 84.628 120.904 "/></g>
<g fill="#9BBBBCFF" stroke="#9BBBBCFF">
<path d="M 317.136 14.250 C 317.009 16.814 317.270 17.000 321.000 17.000 C 324.730 17.000 324.991 16.814 324.864 14.250 C 324.747 11.892 324.666 11.821 324.294 13.750 C 323.965 15.458 323.172 16.000 321.000 16.000 C 318.828 16.000 318.035 15.458 317.706 13.750 C 317.334 11.821 317.253 11.892 317.136 14.250 "/></g>
<g fill="#9BBBBCFF" stroke="#9BBBBCFF">
<path d="M 160.192 345.668 C 160.086 346.311 159.727 347.548 159.393 348.418 C 158.502 350.739 162.588 350.469 165.727 348.000 C 167.126 346.900 167.791 346.000 167.206 346.000 C 166.621 346.000 165.468 346.675 164.643 347.500 C 162.451 349.691 160.424 349.333 160.403 346.750 C 160.392 345.513 160.298 345.026 160.192 345.668 "/></g>
<g fill="#9BBBBCFF" stroke="#9BBBBCFF">
<path d="M 75.200 332.200 C 72.775 334.625 74.029 342.022 76.857 341.970 C 78.314 341.943 78.302 341.824 76.750 340.920 C 74.033 339.338 74.379 333.185 77.250 332.031 C 78.630 331.476 78.901 331.102 77.950 331.063 C 77.098 331.029 75.860 331.540 75.200 332.200 "/></g>
<g fill="#9BBBBCFF" stroke="#9BBBBCFF">
<path d="M 191.166 262.597 C 189.654 263.656 189.028 264.918 189.307 266.347 C 189.717 268.445 189.731 268.447 189.864 266.419 C 190.016 264.099 192.970 262.267 197.500 261.685 C 200.325 261.322 200.294 261.291 196.973 261.150 C 195.032 261.067 192.419 261.718 191.166 262.597 "/></g>
<g fill="#9BBBBCFF" stroke="#9BBBBCFF">
<path d="M 48.169 262.500 C 48.444 264.081 49.435 264.566 52.894 264.814 C 55.302 264.987 57.715 264.685 58.257 264.143 C 58.904 263.496 57.775 263.355 54.969 263.731 C 51.511 264.195 50.421 263.941 49.258 262.402 C 47.855 260.546 47.829 260.549 48.169 262.500 "/></g>
<g fill="#9BBBBCFF" stroke="#9BBBBCFF">
<path d="M 94.412 69.369 C 94.123 70.122 94.054 73.160 94.258 76.119 L 94.630 81.500 94.815 75.323 C 94.963 70.378 95.349 69.055 96.750 68.689 C 98.390 68.261 98.388 68.225 96.719 68.116 C 95.739 68.052 94.701 68.616 94.412 69.369 "/></g>
<g fill="#9BBBBCFF" stroke="#9BBBBCFF">
<path d="M 138.167 287.500 C 137.957 289.386 130.412 289.607 129.662 287.750 C 129.369 287.023 129.125 287.256 129.079 288.305 C 129.012 289.843 129.703 290.064 133.750 289.805 C 137.531 289.562 138.483 289.143 138.417 287.750 C 138.371 286.788 138.258 286.675 138.167 287.500 "/></g>
<g fill="#9BBBBCFF" stroke="#9BBBBCFF">
<path d="M 258.600 91.600 C 258.225 95.259 258.122 98.456 258.371 98.705 C 258.620 98.954 259.143 96.177 259.533 92.533 C 259.923 88.890 260.026 85.693 259.762 85.429 C 259.498 85.164 258.975 87.941 258.600 91.600 "/></g>
<g fill="#9BBBBCFF" stroke="#9BBBBCFF">
<path d="M 109.500 64.647 C 105.650 65.845 102.981 66.865 103.568 66.913 C 105.138 67.041 115.416 63.919 116.000 63.137 C 116.275 62.769 113.350 63.448 109.500 64.647 "/></g>
<g fill="#C1EFE1FF" stroke="#C1EFE1FF">
<path d="M 110.180 265.250 L 110.360 270.500 110.732 265.813 C 111.041 261.930 111.482 261.052 113.302 260.699 C 115.123 260.346 115.028 260.249 112.750 260.136 C 110.061 260.003 110.004 260.116 110.180 265.250 "/></g>
<g fill="#9BBBBCFF" stroke="#9BBBBCFF">
<path d="M 173.489 345.750 C 173.876 348.475 173.631 349.000 171.975 349.000 C 170.889 349.000 169.933 348.550 169.850 348.000 C 169.768 347.450 169.655 347.563 169.600 348.250 C 169.545 348.938 170.738 349.642 172.250 349.816 C 175.193 350.155 175.464 349.370 173.914 345.000 C 173.133 342.800 173.082 342.890 173.489 345.750 "/></g>
<g fill="#9BBBBCFF" stroke="#9BBBBCFF">
<path d="M 271.695 340.057 C 271.254 341.745 271.412 341.903 272.579 340.935 C 273.703 340.002 274.000 340.079 274.000 341.304 C 274.000 342.156 273.213 343.059 272.250 343.311 C 270.933 343.655 271.057 343.797 272.750 343.884 C 275.028 344.001 275.557 342.616 274.393 339.582 C 273.552 337.391 272.337 337.605 271.695 340.057 "/></g>
<g fill="#9BBBBCFF" stroke="#9BBBBCFF">
<path d="M 259.913 343.725 C 259.136 347.428 258.778 350.017 259.118 349.479 C 260.071 347.971 262.283 337.950 261.776 337.442 C 261.528 337.195 260.690 340.022 259.913 343.725 "/></g>
<g fill="#9BBBBCFF" stroke="#9BBBBCFF">
<path d="M 237.639 338.498 C 236.445 341.611 236.935 344.003 238.750 343.921 C 239.795 343.874 239.997 343.639 239.250 343.338 C 238.563 343.060 238.007 342.083 238.015 341.167 C 238.029 339.725 238.162 339.703 239.000 341.000 C 239.862 342.333 239.969 342.333 239.969 341.000 C 239.969 340.175 239.589 338.900 239.124 338.166 C 238.449 337.102 238.149 337.169 237.639 338.498 "/></g>
<g fill="#9BBBBCFF" stroke="#9BBBBCFF">
<path d="M 143.675 285.782 C 144.397 288.648 147.295 290.246 150.799 289.711 C 153.317 289.328 153.286 289.290 150.333 289.150 C 148.146 289.046 146.538 288.149 145.133 286.250 C 143.275 283.738 143.149 283.698 143.675 285.782 "/></g>
<g fill="#9BBBBCFF" stroke="#9BBBBCFF">
<path d="M 5.015 279.750 C 5.027 281.123 5.217 281.205 5.896 280.134 C 6.474 279.221 8.130 278.898 10.881 279.160 C 13.146 279.376 15.000 279.203 15.000 278.776 C 15.000 278.349 12.750 278.000 10.000 278.000 C 5.899 278.000 5.003 278.315 5.015 279.750 "/></g>
<g fill="#9BBBBCFF" stroke="#9BBBBCFF">
<path d="M 230.943 261.944 C 232.111 262.683 232.163 263.346 231.215 265.428 C 230.244 267.559 230.296 268.000 231.521 268.000 C 232.545 268.000 233.000 266.922 233.000 264.500 C 233.000 261.827 232.586 261.004 231.250 261.015 C 229.806 261.028 229.753 261.190 230.943 261.944 "/></g>
<g fill="#9BBBBCFF" stroke="#9BBBBCFF">
<path d="M 7.000 255.000 C 5.645 256.355 5.040 258.210 5.125 260.750 L 5.250 264.500 5.940 260.269 C 6.692 255.654 6.612 255.791 9.500 254.178 C 10.600 253.563 10.938 253.047 10.250 253.030 C 9.563 253.014 8.100 253.900 7.000 255.000 "/></g>
<g fill="#9BBBBCFF" stroke="#9BBBBCFF">
<path d="M 230.819 252.273 C 231.819 253.484 231.871 254.373 231.034 255.936 C 230.132 257.621 230.223 258.000 231.528 258.000 C 233.628 258.000 233.154 251.868 231.000 251.164 C 229.736 250.752 229.708 250.926 230.819 252.273 "/></g>
<g fill="#9BBBBCFF" stroke="#9BBBBCFF">
<path d="M 81.215 105.500 C 81.202 106.600 81.770 109.750 82.477 112.500 C 83.184 115.250 83.773 116.600 83.785 115.500 C 83.798 114.400 83.230 111.250 82.523 108.500 C 81.816 105.750 81.227 104.400 81.215 105.500 "/></g>
<g fill="#9BBBBCFF" stroke="#9BBBBCFF">
<path d="M 200.666 44.017 C 201.307 44.833 204.101 46.625 206.874 48.000 C 211.961 50.522 211.844 50.428 202.414 44.398 C 200.453 43.144 199.881 43.019 200.666 44.017 "/></g>
<g fill="#C1EFE1FF" stroke="#C1EFE1FF">
<path d="M 292.321 348.500 C 292.499 350.225 293.248 350.495 297.764 350.462 L 303.000 350.423 298.073 350.212 C 294.361 350.052 293.019 349.569 292.631 348.250 C 292.230 346.890 292.161 346.946 292.321 348.500 "/></g>
<g fill="#C1EFE1FF" stroke="#C1EFE1FF">
<path d="M 18.810 278.501 C 19.128 281.219 18.860 282.000 17.609 282.000 C 16.724 282.000 15.925 281.325 15.833 280.500 C 15.742 279.675 15.629 279.788 15.583 280.750 C 15.530 281.861 16.230 282.500 17.500 282.500 C 18.960 282.500 19.589 281.724 19.828 279.628 C 20.009 278.049 19.762 276.362 19.279 275.879 C 18.776 275.376 18.576 276.495 18.810 278.501 "/></g>
<g fill="#9BBBBCFF" stroke="#9BBBBCFF">
<path d="M 339.001 280.750 C 339.002 281.163 341.268 281.479 344.037 281.453 C 346.806 281.427 348.756 281.089 348.369 280.703 C 347.425 279.758 339.000 279.801 339.001 280.750 "/></g>
<g fill="#9BBBBCFF" stroke="#9BBBBCFF">
<path d="M 34.118 269.193 C 33.986 272.195 37.127 275.037 40.473 274.944 C 41.774 274.907 41.250 274.460 39.009 273.694 C 36.349 272.784 35.365 271.785 34.877 269.500 C 34.242 266.525 34.236 266.522 34.118 269.193 "/></g>
<g fill="#9BBBBCFF" stroke="#9BBBBCFF">
<path d="M 180.750 256.075 C 181.438 256.804 182.000 258.194 182.000 259.165 C 182.000 260.135 182.900 261.411 184.000 262.000 C 185.356 262.726 186.000 262.737 186.000 262.035 C 186.000 261.466 185.355 261.000 184.566 261.000 C 183.758 261.000 182.995 259.834 182.816 258.327 C 182.642 256.857 181.825 255.451 181.000 255.202 C 179.789 254.837 179.741 255.006 180.750 256.075 "/></g>
<g fill="#9BBBBCFF" stroke="#9BBBBCFF">
<path d="M 54.000 254.291 C 55.375 254.985 57.077 257.115 57.783 259.026 L 59.065 262.500 58.529 259.108 C 57.979 255.625 55.654 253.077 53.000 253.047 C 52.175 253.037 52.625 253.597 54.000 254.291 "/></g>
<g fill="#9BBBBCFF" stroke="#9BBBBCFF">
<path d="M 35.655 254.829 C 34.708 255.875 34.061 258.122 34.142 260.079 L 34.284 263.500 34.892 259.524 C 35.334 256.635 36.183 255.205 38.000 254.289 C 39.558 253.504 39.899 253.024 38.905 253.015 C 38.028 253.007 36.565 253.823 35.655 254.829 "/></g>
<g fill="#9BBBBCFF" stroke="#9BBBBCFF">
<path d="M 231.001 41.796 C 231.002 42.532 240.732 46.770 240.969 46.137 C 241.044 45.937 238.831 44.720 236.052 43.433 C 233.274 42.145 231.000 41.409 231.001 41.796 "/></g>
<g fill="#9BBBBCFF" stroke="#9BBBBCFF">
<path d="M 317.079 9.750 C 317.126 10.795 317.361 10.997 317.662 10.250 C 317.940 9.563 319.442 9.000 321.000 9.000 C 322.558 9.000 324.060 9.563 324.338 10.250 C 324.639 10.997 324.874 10.795 324.921 9.750 C 324.984 8.362 324.173 8.000 321.000 8.000 C 317.827 8.000 317.016 8.362 317.079 9.750 "/></g>
<g fill="#C1EFE1FF" stroke="#C1EFE1FF">
<path d="M 246.500 290.082 L 240.500 290.664 246.250 290.832 C 249.413 290.924 252.113 290.663 252.250 290.250 C 252.388 289.838 249.800 289.762 246.500 290.082 "/></g>
<g fill="#C1EFE1FF" stroke="#C1EFE1FF">
<path d="M 198.750 267.618 C 198.338 268.011 198.000 269.383 198.000 270.667 C 198.000 272.663 198.469 272.978 201.250 272.850 C 204.314 272.709 204.341 272.676 201.723 272.281 C 199.448 271.938 198.996 271.414 199.223 269.382 C 199.375 268.018 199.163 267.224 198.750 267.618 "/></g>
<g fill="#C1EFE1FF" stroke="#C1EFE1FF">
<path d="M 228.500 198.220 L 224.500 202.081 228.500 198.220 L 232.500 194.360 228.500 198.220 "/></g>
<g fill="#9BBBBCFF" stroke="#9BBBBCFF">
<path d="M 258.000 331.906 C 258.000 332.405 258.900 332.577 260.000 332.290 C 261.570 331.879 262.018 332.275 262.086 334.133 C 262.167 336.357 262.222 336.333 262.999 333.750 C 263.770 331.190 263.626 331.000 260.914 331.000 C 259.311 331.000 258.000 331.408 258.000 331.906 "/></g>
<g fill="#9BBBBCFF" stroke="#9BBBBCFF">
<path d="M 205.741 194.971 C 203.124 196.912 201.552 198.393 202.248 198.262 C 202.944 198.131 205.085 196.543 207.007 194.733 L 210.500 191.442 205.741 194.971 "/></g>
<g fill="#9BBBBCFF" stroke="#9BBBBCFF">
<path d="M 146.417 193.388 C 148.571 195.375 150.743 197.000 151.243 197.000 C 151.744 197.000 150.881 195.977 149.327 194.726 C 144.050 190.482 142.484 189.762 146.417 193.388 "/></g>
<g fill="#9BBBBCFF" stroke="#9BBBBCFF">
<path d="M 103.233 95.500 C 103.235 97.150 103.580 99.850 104.000 101.500 C 105.058 105.659 105.105 101.566 104.057 96.500 C 103.362 93.137 103.231 92.978 103.233 95.500 "/></g>
<g fill="#C1EFE1FF" stroke="#C1EFE1FF">
<path d="M 280.116 264.782 C 280.031 267.189 279.400 268.306 277.750 268.969 L 275.500 269.873 277.731 269.937 C 280.125 270.005 281.589 266.752 280.705 263.329 C 280.439 262.302 280.181 262.940 280.116 264.782 "/></g>
<g fill="#C1EFE1FF" stroke="#C1EFE1FF">
<path d="M 186.200 264.500 C 186.046 267.197 185.541 268.041 184.000 268.179 C 182.557 268.307 182.627 268.377 184.250 268.429 C 186.204 268.491 186.493 268.007 186.450 264.750 C 186.401 261.101 186.395 261.095 186.200 264.500 "/></g>
<g fill="#9BBBBCFF" stroke="#9BBBBCFF">
<path d="M 333.384 268.442 C 333.080 269.234 333.042 270.697 333.299 271.692 C 333.613 272.903 333.806 272.615 333.884 270.816 C 333.976 268.694 334.575 268.046 336.750 267.716 L 339.500 267.300 336.719 267.150 C 335.106 267.063 333.705 267.606 333.384 268.442 "/></g>
<g fill="#9BBBBCFF" stroke="#9BBBBCFF">
<path d="M 342.797 262.131 C 344.686 262.675 346.475 264.026 346.984 265.291 C 347.641 266.922 347.890 267.057 347.937 265.807 C 348.015 263.723 344.271 260.968 341.527 261.090 C 340.228 261.148 340.684 261.522 342.797 262.131 "/></g>
<g fill="#9BBBBCFF" stroke="#9BBBBCFF">
<path d="M 169.000 264.500 C 169.000 266.425 169.388 268.000 169.861 268.000 C 170.335 268.000 170.498 266.827 170.224 265.394 C 169.919 263.794 170.262 262.448 171.113 261.909 C 172.217 261.210 172.142 261.027 170.750 261.015 C 169.414 261.004 169.000 261.827 169.000 264.500 "/></g>
<g fill="#9BBBBCFF" stroke="#9BBBBCFF">
<path d="M 164.500 223.055 C 166.700 224.096 169.175 224.938 170.000 224.927 C 170.825 224.916 169.250 224.028 166.500 222.954 C 160.241 220.510 159.230 220.561 164.500 223.055 "/></g>
<g fill="#9BBBBCFF" stroke="#9BBBBCFF">
<path d="M 271.431 114.000 C 270.210 120.363 270.376 121.223 271.852 116.176 C 272.548 113.797 272.932 111.322 272.706 110.676 C 272.480 110.029 271.907 111.525 271.431 114.000 "/></g>
<g fill="#9BBBBCFF" stroke="#9BBBBCFF">
<path d="M 122.017 60.325 L 117.533 62.500 122.979 60.571 C 125.975 59.510 127.992 58.531 127.463 58.396 C 126.933 58.260 124.483 59.128 122.017 60.325 "/></g>
<g fill="#C1EFE1FF" stroke="#C1EFE1FF">
<path d="M 170.000 8.953 L 165.500 13.556 170.000 8.953 L 174.500 4.350 170.000 8.953 "/></g>
<g fill="#9BBBBCFF" stroke="#9BBBBCFF">
<path d="M 307.314 262.750 C 306.264 263.713 305.992 264.105 306.709 263.622 C 307.426 263.140 309.472 262.398 311.256 261.975 C 314.230 261.269 314.281 261.196 311.861 261.102 C 310.409 261.046 308.363 261.788 307.314 262.750 "/></g>
<g fill="#9BBBBCFF" stroke="#9BBBBCFF">
<path d="M 215.000 264.500 C 215.000 266.425 215.338 268.000 215.750 268.000 C 216.163 268.000 216.500 266.425 216.500 264.500 C 216.500 262.575 216.163 261.000 215.750 261.000 C 215.338 261.000 215.000 262.575 215.000 264.500 "/></g>
<g fill="#9BBBBCFF" stroke="#9BBBBCFF">
<path d="M 201.218 96.000 C 201.208 97.375 201.560 99.625 202.000 101.000 C 202.627 102.959 202.797 103.067 202.782 101.500 C 202.772 100.400 202.420 98.150 202.000 96.500 C 201.314 93.805 201.235 93.754 201.218 96.000 "/></g>
<g fill="#9BBBBCFF" stroke="#9BBBBCFF">
<path d="M 115.500 45.072 C 113.300 46.130 112.625 46.715 114.000 46.373 C 116.831 45.668 122.030 43.062 120.500 43.114 C 119.950 43.133 117.700 44.014 115.500 45.072 "/></g>
<g fill="#C1EFE1FF" stroke="#C1EFE1FF">
<path d="M 76.000 343.031 C 74.899 343.765 75.497 343.939 78.252 343.684 C 80.316 343.494 81.703 343.037 81.335 342.669 C 80.364 341.698 77.731 341.876 76.000 343.031 "/></g>
<g fill="#C1EFE1FF" stroke="#C1EFE1FF">
<path d="M 338.150 269.680 C 338.054 271.082 337.197 272.016 335.750 272.294 C 333.866 272.657 333.958 272.750 336.316 272.864 C 338.847 272.986 339.091 272.721 338.716 270.250 C 338.400 268.161 338.264 268.024 338.150 269.680 "/></g>
<g fill="#0E5952FF" stroke="#0E5952FF">
<path d="M 145.000 327.000 C 144.411 328.100 144.305 329.000 144.765 329.000 C 145.828 329.000 148.000 326.852 148.000 325.800 C 148.000 324.248 146.057 325.025 145.000 327.000 "/></g>
<g fill="#9BBBBCFF" stroke="#9BBBBCFF">
<path d="M 253.574 334.750 C 254.310 336.813 254.926 337.825 254.942 337.000 C 254.991 334.584 253.832 331.000 253.001 331.000 C 252.580 331.000 252.838 332.688 253.574 334.750 "/></g>
<g fill="#9BBBBCFF" stroke="#9BBBBCFF">
<path d="M 210.750 331.662 C 212.479 332.360 212.319 333.965 210.500 334.167 C 209.674 334.258 209.780 334.371 210.736 334.417 C 211.691 334.463 212.624 333.713 212.810 332.750 C 213.035 331.581 212.542 331.026 211.323 331.079 C 210.273 331.124 210.030 331.372 210.750 331.662 "/></g>
<g fill="#9BBBBCFF" stroke="#9BBBBCFF">
<path d="M 200.188 332.739 C 200.372 333.695 201.418 334.611 202.511 334.775 C 204.348 335.051 204.365 334.990 202.729 333.975 C 201.755 333.371 201.219 332.455 201.538 331.939 C 201.857 331.422 201.608 331.000 200.986 331.000 C 200.363 331.000 200.004 331.782 200.188 332.739 "/></g>
<g fill="#9BBBBCFF" stroke="#9BBBBCFF">
<path d="M 58.045 282.000 C 57.852 284.475 58.021 285.751 58.422 284.834 C 58.822 283.918 58.979 281.893 58.772 280.334 C 58.493 278.236 58.304 278.669 58.045 282.000 "/></g>
<g fill="#9BBBBCFF" stroke="#9BBBBCFF">
<path d="M 254.750 262.497 C 255.988 263.458 257.080 265.089 257.179 266.122 C 257.301 267.408 257.380 267.330 257.429 265.872 C 257.471 264.617 256.474 263.130 255.000 262.247 C 252.501 260.750 252.501 260.750 254.750 262.497 "/></g>
<g fill="#9BBBBCFF" stroke="#9BBBBCFF">
<path d="M 157.015 262.750 C 157.025 263.874 157.293 264.089 157.765 263.351 C 158.169 262.719 159.625 261.993 161.000 261.737 C 163.117 261.344 163.002 261.251 160.250 261.136 C 157.764 261.032 157.004 261.412 157.015 262.750 "/></g>
<g fill="#9BBBBCFF" stroke="#9BBBBCFF">
<path d="M 61.015 258.250 C 61.004 259.588 61.764 259.968 64.250 259.864 C 67.002 259.749 67.117 259.656 65.000 259.263 C 63.625 259.007 62.169 258.281 61.765 257.649 C 61.293 256.911 61.025 257.126 61.015 258.250 "/></g>
<g fill="#9BBBBCFF" stroke="#9BBBBCFF">
<path d="M 121.798 254.775 C 124.939 256.417 125.019 256.416 123.477 254.750 C 122.586 253.788 121.102 253.011 120.179 253.025 C 119.207 253.040 119.889 253.776 121.798 254.775 "/></g>
<g fill="#9BBBBCFF" stroke="#9BBBBCFF">
<path d="M 221.308 252.194 C 220.103 252.777 218.892 253.840 218.616 254.557 C 218.341 255.274 219.728 254.767 221.698 253.430 C 225.380 250.932 225.187 250.320 221.308 252.194 "/></g>
<g fill="#9BBBBCFF" stroke="#9BBBBCFF">
<path d="M 191.000 204.000 C 189.075 205.054 187.950 205.916 188.500 205.916 C 189.050 205.916 191.075 205.054 193.000 204.000 C 194.925 202.946 196.050 202.084 195.500 202.084 C 194.950 202.084 192.925 202.946 191.000 204.000 "/></g>
<g fill="#9BBBBCFF" stroke="#9BBBBCFF">
<path d="M 259.679 149.546 C 257.330 154.473 257.661 155.311 260.116 150.656 C 261.232 148.541 261.968 146.634 261.752 146.418 C 261.535 146.202 260.603 147.610 259.679 149.546 "/></g>
<g fill="#9BBBBCFF" stroke="#9BBBBCFF">
<path d="M 263.682 140.358 C 262.692 142.480 262.078 144.411 262.316 144.649 C 262.553 144.887 263.363 143.151 264.114 140.791 L 265.480 136.500 263.682 140.358 "/></g>
<g fill="#C1EFE1FF" stroke="#C1EFE1FF">
<path d="M 283.618 290.191 C 283.893 290.636 285.779 290.944 287.809 290.875 L 291.500 290.750 287.309 290.065 C 285.004 289.689 283.343 289.745 283.618 290.191 "/></g>
<g fill="#C1EFE1FF" stroke="#C1EFE1FF">
<path d="M 153.345 269.543 C 153.019 270.392 153.034 271.367 153.376 271.710 C 153.719 272.053 154.000 271.583 154.000 270.667 C 154.000 268.719 155.604 268.433 156.338 270.250 C 156.639 270.997 156.874 270.795 156.921 269.750 C 157.018 267.590 154.158 267.425 153.345 269.543 "/></g>
<g fill="#C1EFE1FF" stroke="#C1EFE1FF">
<path d="M 228.000 259.500 C 228.000 260.325 228.788 260.993 229.750 260.985 C 231.150 260.972 231.221 260.793 230.105 260.086 C 228.984 259.376 229.082 259.107 230.605 258.717 C 232.211 258.306 232.157 258.214 230.250 258.116 C 228.865 258.045 228.000 258.577 228.000 259.500 "/></g>
<g fill="#C1EFE1FF" stroke="#C1EFE1FF">
<path d="M 140.592 187.180 C 141.642 188.654 143.276 190.229 144.225 190.680 C 145.174 191.131 144.315 189.925 142.317 188.000 C 139.490 185.276 139.107 185.094 140.592 187.180 "/></g>
<g fill="#9BBBBCFF" stroke="#9BBBBCFF">
<path d="M 204.015 348.250 C 204.004 349.524 204.748 349.968 206.750 349.884 C 208.858 349.795 209.033 349.651 207.500 349.268 C 206.400 348.993 205.169 348.258 204.765 347.634 C 204.299 346.914 204.025 347.139 204.015 348.250 "/></g>
<g fill="#9BBBBCFF" stroke="#9BBBBCFF">
<path d="M 112.167 347.500 C 112.075 348.325 111.100 349.080 110.000 349.179 C 108.557 349.307 108.627 349.377 110.250 349.429 C 111.783 349.477 112.473 348.942 112.417 347.750 C 112.371 346.788 112.258 346.675 112.167 347.500 "/></g>
<g fill="#9BBBBCFF" stroke="#9BBBBCFF">
<path d="M 255.000 341.059 C 255.000 342.191 255.450 342.840 256.000 342.500 C 256.550 342.160 257.000 341.234 257.000 340.441 C 257.000 339.648 256.550 339.000 256.000 339.000 C 255.450 339.000 255.000 339.927 255.000 341.059 "/></g>
<g fill="#9BBBBCFF" stroke="#9BBBBCFF">
<path d="M 161.833 337.833 C 161.452 342.792 161.571 343.325 162.359 340.178 C 162.816 338.352 162.922 336.589 162.595 336.262 C 162.268 335.934 161.925 336.642 161.833 337.833 "/></g>
<g fill="#9BBBBCFF" stroke="#9BBBBCFF">
<path d="M 171.170 336.500 C 171.154 337.600 171.527 339.400 172.000 340.500 C 173.095 343.048 173.095 340.419 172.000 337.000 C 171.356 334.990 171.194 334.892 171.170 336.500 "/></g>
<g fill="#9BBBBCFF" stroke="#9BBBBCFF">
<path d="M 226.493 333.173 L 229.256 335.346 228.093 333.173 C 227.453 331.978 226.210 331.000 225.330 331.000 C 224.221 331.000 224.577 331.666 226.493 333.173 "/></g>
<g fill="#9BBBBCFF" stroke="#9BBBBCFF">
<path d="M 163.345 332.543 C 163.019 333.392 163.034 334.367 163.376 334.710 C 163.719 335.053 164.000 334.615 164.000 333.736 C 164.000 332.858 165.013 331.944 166.250 331.706 L 168.500 331.272 166.219 331.136 C 164.964 331.061 163.671 331.694 163.345 332.543 "/></g>
<g fill="#9BBBBCFF" stroke="#9BBBBCFF">
<path d="M 197.404 281.000 C 197.457 282.375 198.063 283.455 198.750 283.400 C 199.438 283.345 199.580 283.233 199.066 283.150 C 198.553 283.068 197.947 281.988 197.720 280.750 C 197.361 278.792 197.320 278.825 197.404 281.000 "/></g>
<g fill="#9BBBBCFF" stroke="#9BBBBCFF">
<path d="M 55.365 270.073 C 56.814 271.212 58.000 271.678 58.000 271.108 C 58.000 270.537 57.130 269.605 56.066 269.035 C 52.896 267.339 52.547 267.856 55.365 270.073 "/></g>
<g fill="#9BBBBCFF" stroke="#9BBBBCFF">
<path d="M 201.250 267.631 C 202.213 267.914 203.080 269.014 203.179 270.073 C 203.293 271.304 203.383 271.192 203.429 269.764 C 203.477 268.234 202.868 267.462 201.500 267.321 C 199.946 267.161 199.890 267.230 201.250 267.631 "/></g>
<g fill="#9BBBBCFF" stroke="#9BBBBCFF">
<path d="M 81.500 259.099 L 78.500 259.763 81.833 259.882 C 83.667 259.947 85.017 259.648 84.833 259.218 C 84.650 258.788 83.150 258.734 81.500 259.099 "/></g>
<g fill="#9BBBBCFF" stroke="#9BBBBCFF">
<path d="M 89.573 137.000 C 89.941 138.375 90.659 140.175 91.169 141.000 C 91.813 142.042 91.892 141.737 91.427 140.000 C 91.059 138.625 90.341 136.825 89.831 136.000 C 89.187 134.958 89.108 135.263 89.573 137.000 "/></g>
<g fill="#9BBBBCFF" stroke="#9BBBBCFF">
<path d="M 99.170 110.500 C 99.154 111.600 99.527 113.400 100.000 114.500 C 101.095 117.048 101.095 114.419 100.000 111.000 C 99.356 108.990 99.194 108.892 99.170 110.500 "/></g>
<g fill="#9BBBBCFF" stroke="#9BBBBCFF">
<path d="M 291.116 68.680 C 291.052 69.330 289.988 70.056 288.750 70.294 C 286.871 70.656 286.965 70.750 289.323 70.864 C 291.552 70.971 292.050 70.632 291.689 69.250 C 291.438 68.288 291.180 68.031 291.116 68.680 "/></g>
<g fill="#C1EFE1FF" stroke="#C1EFE1FF">
<path d="M 269.602 330.836 C 269.318 331.295 270.753 331.347 272.793 330.951 L 276.500 330.230 273.309 330.115 C 271.554 330.052 269.886 330.376 269.602 330.836 "/></g>
<g fill="#C1EFE1FF" stroke="#C1EFE1FF">
<path d="M 30.025 281.500 C 29.826 283.789 29.994 284.783 30.418 283.823 C 30.825 282.900 30.981 281.100 30.765 279.823 C 30.507 278.299 30.252 278.876 30.025 281.500 "/></g>
<g fill="#C1EFE1FF" stroke="#C1EFE1FF">
<path d="M 216.755 258.500 C 216.492 259.875 216.612 261.000 217.022 261.000 C 217.432 261.000 217.982 259.875 218.245 258.500 C 218.508 257.125 218.388 256.000 217.978 256.000 C 217.568 256.000 217.018 257.125 216.755 258.500 "/></g>
<g fill="#C1EFE1FF" stroke="#C1EFE1FF">
<path d="M 171.909 257.750 C 171.600 259.538 171.747 261.000 172.237 261.000 C 172.726 261.000 172.980 259.538 172.800 257.750 L 172.473 254.500 171.909 257.750 "/></g>
<g fill="#9BBBBCFF" stroke="#9BBBBCFF">
<path d="M 257.108 284.500 C 257.040 285.600 256.650 287.041 256.242 287.701 C 255.834 288.362 256.100 288.271 256.833 287.499 C 257.565 286.728 257.955 285.287 257.699 284.298 C 257.290 282.722 257.217 282.747 257.108 284.500 "/></g>
<g fill="#9BBBBCFF" stroke="#9BBBBCFF">
<path d="M 120.500 276.684 C 118.850 277.358 118.230 277.930 119.123 277.955 C 120.016 277.980 121.366 277.428 122.123 276.729 C 123.238 275.700 122.930 275.692 120.500 276.684 "/></g>
<g fill="#9BBBBCFF" stroke="#9BBBBCFF">
<path d="M 185.136 265.167 C 185.061 266.083 184.438 267.060 183.750 267.338 C 183.029 267.629 183.269 267.875 184.320 267.921 C 185.683 267.980 186.030 267.436 185.706 265.750 C 185.452 264.431 185.216 264.190 185.136 265.167 "/></g>
<g fill="#9BBBBCFF" stroke="#9BBBBCFF">
<path d="M 136.250 251.999 C 137.847 252.480 139.000 252.444 139.000 251.914 C 139.000 251.411 137.763 251.039 136.250 251.086 L 133.500 251.172 136.250 251.999 "/></g>
<g fill="#9BBBBCFF" stroke="#9BBBBCFF">
<path d="M 256.143 157.143 C 255.438 158.271 255.081 159.414 255.350 159.683 C 255.618 159.952 256.361 159.194 257.000 158.000 C 258.511 155.176 257.809 154.474 256.143 157.143 "/></g>
<g fill="#9BBBBCFF" stroke="#9BBBBCFF">
<path d="M 252.571 120.571 C 252.204 122.037 252.096 123.429 252.331 123.665 C 252.567 123.900 253.061 122.894 253.429 121.429 C 253.796 119.963 253.904 118.571 253.669 118.335 C 253.433 118.100 252.939 119.106 252.571 120.571 "/></g>
<g fill="#9BBBBCFF" stroke="#9BBBBCFF">
<path d="M 250.070 82.691 C 250.032 83.896 250.450 85.160 251.000 85.500 C 252.183 86.231 252.183 85.252 251.000 82.500 C 250.171 80.572 250.138 80.579 250.070 82.691 "/></g>
<g fill="#C1EFE1FF" stroke="#C1EFE1FF">
<path d="M 252.581 350.131 C 252.876 350.609 254.329 350.954 255.809 350.898 C 258.343 350.801 258.312 350.751 255.272 350.028 C 253.479 349.602 252.282 349.648 252.581 350.131 "/></g>
<g fill="#C1EFE1FF" stroke="#C1EFE1FF">
<path d="M 221.000 179.924 L 218.500 182.566 221.000 179.924 L 223.500 177.282 221.000 179.924 "/></g>
<g fill="#C1EFE1FF" stroke="#C1EFE1FF">
<path d="M 268.334 128.159 L 267.516 131.500 268.786 128.611 C 269.484 127.023 269.852 125.519 269.604 125.270 C 269.355 125.021 268.783 126.321 268.334 128.159 "/></g>
<g fill="#C1EFE1FF" stroke="#C1EFE1FF">
<path d="M 185.000 9.000 L 188.000 12.000 185.000 9.000 L 182.000 6.000 185.000 9.000 "/></g>
<g fill="#9BBBBCFF" stroke="#9BBBBCFF">
<path d="M 283.377 347.332 C 283.720 348.339 284.000 349.352 284.000 349.582 C 284.000 349.812 284.476 350.000 285.057 350.000 C 285.638 350.000 285.358 348.988 284.434 347.750 C 283.180 346.071 282.912 345.965 283.377 347.332 "/></g>
<g fill="#9BBBBCFF" stroke="#9BBBBCFF">
<path d="M 231.063 347.750 C 231.029 348.988 231.435 350.000 231.968 350.000 C 232.573 350.000 232.596 349.156 232.031 347.750 L 231.127 345.500 231.063 347.750 "/></g>
<g fill="#9BBBBCFF" stroke="#9BBBBCFF">
<path d="M 138.667 335.667 C 138.300 336.033 138.014 337.046 138.030 337.917 C 138.055 339.217 138.251 339.174 139.122 337.675 C 140.199 335.823 139.887 334.447 138.667 335.667 "/></g>
<g fill="#9BBBBCFF" stroke="#9BBBBCFF">
<path d="M 93.345 332.543 C 93.019 333.392 93.034 334.367 93.376 334.710 C 93.719 335.053 94.000 334.621 94.000 333.750 C 94.000 332.879 94.563 331.940 95.250 331.662 C 96.229 331.267 96.222 331.141 95.219 331.079 C 94.514 331.036 93.671 331.694 93.345 332.543 "/></g>
<g fill="#9BBBBCFF" stroke="#9BBBBCFF">
<path d="M 210.556 264.029 C 211.839 265.425 212.408 265.643 212.229 264.671 C 212.080 263.861 211.205 262.909 210.285 262.556 C 208.904 262.026 208.951 262.283 210.556 264.029 "/></g>
<g fill="#9BBBBCFF" stroke="#9BBBBCFF">
<path d="M 300.500 262.000 C 303.249 263.181 304.828 263.181 303.000 262.000 C 302.175 261.467 300.825 261.055 300.000 261.086 C 299.011 261.122 299.181 261.433 300.500 262.000 "/></g>
<g fill="#9BBBBCFF" stroke="#9BBBBCFF">
<path d="M 294.000 262.000 C 292.172 263.181 293.751 263.181 296.500 262.000 C 297.819 261.433 297.989 261.122 297.000 261.086 C 296.175 261.055 294.825 261.467 294.000 262.000 "/></g>
<g fill="#9BBBBCFF" stroke="#9BBBBCFF">
<path d="M 15.636 259.780 C 15.371 260.208 16.248 260.511 17.584 260.453 C 18.920 260.394 19.710 260.044 19.340 259.673 C 18.426 258.759 16.228 258.822 15.636 259.780 "/></g>
<g fill="#9BBBBCFF" stroke="#9BBBBCFF">
<path d="M 173.063 257.250 L 173.127 259.500 174.031 257.250 C 174.596 255.844 174.573 255.000 173.968 255.000 C 173.435 255.000 173.029 256.013 173.063 257.250 "/></g>
<g fill="#9BBBBCFF" stroke="#9BBBBCFF">
<path d="M 100.000 253.968 C 100.000 254.573 100.844 254.596 102.250 254.031 L 104.500 253.127 102.250 253.063 C 101.013 253.029 100.000 253.435 100.000 253.968 "/></g>
<g fill="#9BBBBCFF" stroke="#9BBBBCFF">
<path d="M 251.372 166.620 C 250.534 169.224 250.552 169.242 251.831 167.079 C 252.563 165.841 252.955 164.622 252.703 164.369 C 252.450 164.117 251.851 165.130 251.372 166.620 "/></g>
<g fill="#9BBBBCFF" stroke="#9BBBBCFF">
<path d="M 266.343 133.000 C 265.766 134.375 265.648 135.397 266.081 135.272 C 266.513 135.147 266.985 134.022 267.129 132.772 C 267.376 130.632 267.330 130.645 266.343 133.000 "/></g>
<g fill="#9BBBBCFF" stroke="#9BBBBCFF">
<path d="M 103.086 125.000 C 103.055 125.825 103.467 127.175 104.000 128.000 C 105.181 129.828 105.181 128.249 104.000 125.500 C 103.433 124.181 103.122 124.011 103.086 125.000 "/></g>
<g fill="#9BBBBCFF" stroke="#9BBBBCFF">
<path d="M 107.500 48.000 C 106.181 48.567 106.011 48.878 107.000 48.914 C 107.825 48.945 109.175 48.533 110.000 48.000 C 111.828 46.819 110.249 46.819 107.500 48.000 "/></g>
<g fill="#C1EFE1FF" stroke="#C1EFE1FF">
<path d="M 268.000 350.110 C 265.628 350.765 265.615 350.806 267.750 350.900 C 268.988 350.955 270.113 350.644 270.250 350.209 C 270.388 349.774 269.375 349.729 268.000 350.110 "/></g>
<g fill="#C1EFE1FF" stroke="#C1EFE1FF">
<path d="M 272.750 340.577 C 271.657 341.679 271.833 343.000 273.073 343.000 C 273.664 343.000 274.001 342.285 273.823 341.410 C 273.645 340.536 273.163 340.161 272.750 340.577 "/></g>
<g fill="#C1EFE1FF" stroke="#C1EFE1FF">
<path d="M 166.750 340.577 C 165.657 341.679 165.833 343.000 167.073 343.000 C 167.664 343.000 168.001 342.285 167.823 341.410 C 167.645 340.536 167.163 340.161 166.750 340.577 "/></g>
<g fill="#C1EFE1FF" stroke="#C1EFE1FF">
<path d="M 96.750 340.577 C 95.657 341.679 95.833 343.000 97.073 343.000 C 97.664 343.000 98.001 342.285 97.823 341.410 C 97.645 340.536 97.163 340.161 96.750 340.577 "/></g>
<g fill="#C1EFE1FF" stroke="#C1EFE1FF">
<path d="M 151.000 290.110 C 148.628 290.765 148.615 290.806 150.750 290.900 C 151.988 290.955 153.113 290.644 153.250 290.209 C 153.388 289.774 152.375 289.729 151.000 290.110 "/></g>
<g fill="#C1EFE1FF" stroke="#C1EFE1FF">
<path d="M 156.079 280.857 C 156.028 281.727 155.372 281.975 154.250 281.548 C 152.916 281.040 152.776 281.160 153.663 282.054 C 155.026 283.427 157.323 282.348 156.632 280.658 C 156.323 279.904 156.130 279.973 156.079 280.857 "/></g>
<g fill="#C1EFE1FF" stroke="#C1EFE1FF">
<path d="M 44.408 281.225 C 44.550 281.926 45.417 282.463 46.333 282.417 C 47.250 282.371 47.363 282.258 46.583 282.167 C 45.804 282.075 44.938 281.539 44.658 280.975 C 44.379 280.411 44.266 280.524 44.408 281.225 "/></g>
<g fill="#C1EFE1FF" stroke="#C1EFE1FF">
<path d="M 292.000 262.571 C 292.000 264.000 292.143 264.000 293.571 262.571 C 295.000 261.143 295.000 261.000 293.571 261.000 C 292.707 261.000 292.000 261.707 292.000 262.571 "/></g>
<g fill="#C1EFE1FF" stroke="#C1EFE1FF">
<path d="M 209.474 191.065 L 207.500 193.283 209.753 191.899 C 210.992 191.138 211.880 190.140 211.727 189.681 C 211.574 189.222 210.560 189.845 209.474 191.065 "/></g>
<g fill="#C1EFE1FF" stroke="#C1EFE1FF">
<path d="M 134.000 180.000 L 136.500 182.500 134.000 180.000 L 131.500 177.500 134.000 180.000 "/></g>
<g fill="#C1EFE1FF" stroke="#C1EFE1FF">
<path d="M 80.552 53.915 C 80.216 54.459 81.105 54.494 82.743 54.001 C 85.094 53.294 85.177 53.159 83.309 53.086 C 82.104 53.039 80.863 53.412 80.552 53.915 "/></g>
<g fill="#C1EFE1FF" stroke="#C1EFE1FF">
<path d="M 102.500 49.000 C 101.181 49.567 101.011 49.878 102.000 49.914 C 102.825 49.945 104.175 49.533 105.000 49.000 C 106.828 47.819 105.249 47.819 102.500 49.000 "/></g>
<g fill="#C1EFE1FF" stroke="#C1EFE1FF">
<path d="M 174.831 28.831 L 173.331 30.331 174.831 28.831 L 176.331 27.331 174.831 28.831 "/></g>
<g fill="#9BBBBCFF" stroke="#9BBBBCFF">
<path d="M 235.128 348.387 C 234.300 349.359 234.184 350.000 234.834 350.000 C 235.427 350.000 236.045 349.274 236.206 348.387 C 236.476 346.904 236.390 346.904 235.128 348.387 "/></g>
<g fill="#9BBBBCFF" stroke="#9BBBBCFF">
<path d="M 169.920 332.750 C 170.891 334.417 170.941 334.417 170.970 332.750 C 170.986 331.788 170.528 331.000 169.950 331.000 C 169.229 331.000 169.219 331.547 169.920 332.750 "/></g>
<g fill="#9BBBBCFF" stroke="#9BBBBCFF">
<path d="M 138.667 331.667 C 138.300 332.033 138.000 332.740 138.000 333.238 C 138.000 333.736 138.707 333.436 139.571 332.571 C 140.436 331.707 140.736 331.000 140.238 331.000 C 139.740 331.000 139.033 331.300 138.667 331.667 "/></g>
<g fill="#9BBBBCFF" stroke="#9BBBBCFF">
<path d="M 235.000 285.655 C 235.000 286.260 235.766 287.373 236.702 288.128 C 238.305 289.420 238.305 289.356 236.702 287.027 C 235.766 285.668 235.000 285.050 235.000 285.655 "/></g>
<g fill="#9BBBBCFF" stroke="#9BBBBCFF">
<path d="M 198.250 199.793 C 197.563 199.998 197.006 200.692 197.014 201.333 C 197.022 202.026 197.530 201.874 198.264 200.959 C 199.247 199.733 199.244 199.495 198.250 199.793 "/></g>
<g fill="#9BBBBCFF" stroke="#9BBBBCFF">
<path d="M 269.750 121.628 C 269.338 122.016 269.042 123.046 269.093 123.917 C 269.146 124.802 269.476 124.492 269.843 123.212 C 270.205 121.953 270.163 121.241 269.750 121.628 "/></g>
<g fill="#9BBBBCFF" stroke="#9BBBBCFF">
<path d="M 244.508 65.013 C 244.844 65.556 245.879 65.971 246.809 65.937 C 248.009 65.892 247.833 65.605 246.199 64.950 C 244.708 64.352 244.113 64.374 244.508 65.013 "/></g>
<g fill="#9BBBBCFF" stroke="#9BBBBCFF">
<path d="M 226.417 39.865 C 226.778 40.450 227.845 41.058 228.787 41.215 C 229.868 41.395 229.626 41.002 228.129 40.150 C 226.825 39.408 226.055 39.279 226.417 39.865 "/></g>
<g fill="#C1EFE1FF" stroke="#C1EFE1FF">
<path d="M 112.000 344.359 C 112.000 345.371 112.462 345.833 113.087 345.446 C 113.870 344.962 113.870 344.470 113.087 343.687 C 112.304 342.904 112.000 343.092 112.000 344.359 "/></g>
<g fill="#C1EFE1FF" stroke="#C1EFE1FF">
<path d="M 248.063 332.191 C 248.029 333.121 248.444 334.156 248.987 334.492 C 249.626 334.887 249.648 334.292 249.050 332.801 C 248.395 331.167 248.108 330.991 248.063 332.191 "/></g>
<g fill="#C1EFE1FF" stroke="#C1EFE1FF">
<path d="M 325.872 288.298 C 326.627 289.234 327.740 290.000 328.345 290.000 C 328.950 290.000 328.332 289.234 326.973 288.298 C 324.644 286.695 324.580 286.695 325.872 288.298 "/></g>
<g fill="#C1EFE1FF" stroke="#C1EFE1FF">
<path d="M 235.872 288.298 C 236.627 289.234 237.740 290.000 238.345 290.000 C 238.950 290.000 238.332 289.234 236.973 288.298 C 234.644 286.695 234.580 286.695 235.872 288.298 "/></g>
<g fill="#C1EFE1FF" stroke="#C1EFE1FF">
<path d="M 124.250 275.422 L 123.500 277.343 124.250 275.422 L 125.000 273.500 124.250 275.422 "/></g>
<g fill="#C1EFE1FF" stroke="#C1EFE1FF">
<path d="M 325.107 263.495 C 324.342 264.349 323.926 265.259 324.183 265.517 C 324.441 265.774 325.068 265.075 325.576 263.963 C 326.390 262.182 326.334 262.126 325.107 263.495 "/></g>
<g fill="#C1EFE1FF" stroke="#C1EFE1FF">
<path d="M 304.000 263.088 C 304.000 264.163 305.374 264.293 306.355 263.312 C 306.733 262.933 306.358 262.523 305.522 262.400 C 304.685 262.277 304.000 262.587 304.000 263.088 "/></g>
<g fill="#C1EFE1FF" stroke="#C1EFE1FF">
<path d="M 236.828 262.649 L 235.500 263.798 236.828 262.649 L 238.156 261.500 236.828 262.649 "/></g>
<g fill="#C1EFE1FF" stroke="#C1EFE1FF">
<path d="M 139.250 209.660 C 140.213 210.633 141.000 210.930 141.000 210.321 C 141.000 209.712 140.213 208.917 139.250 208.553 C 137.583 207.923 137.583 207.976 139.250 209.660 "/></g>
<g fill="#C1EFE1FF" stroke="#C1EFE1FF">
<path d="M 182.500 207.089 C 180.810 207.740 180.771 207.870 182.250 207.930 C 183.213 207.968 184.113 207.622 184.250 207.159 C 184.388 206.697 183.600 206.665 182.500 207.089 "/></g>
<g fill="#C1EFE1FF" stroke="#C1EFE1FF">
<path d="M 170.508 207.013 C 170.844 207.556 171.879 207.971 172.809 207.937 C 174.009 207.892 173.833 207.605 172.199 206.950 C 170.708 206.352 170.113 206.374 170.508 207.013 "/></g>
<g fill="#C1EFE1FF" stroke="#C1EFE1FF">
<path d="M 219.000 206.888 L 217.500 208.563 219.000 206.888 L 220.500 205.212 219.000 206.888 "/></g>
<g fill="#C1EFE1FF" stroke="#C1EFE1FF">
<path d="M 120.000 191.000 L 122.000 193.000 120.000 191.000 L 118.000 189.000 120.000 191.000 "/></g>
<g fill="#C1EFE1FF" stroke="#C1EFE1FF">
<path d="M 237.000 188.888 L 235.500 190.563 237.000 188.888 L 238.500 187.212 237.000 188.888 "/></g>
<g fill="#C1EFE1FF" stroke="#C1EFE1FF">
<path d="M 250.250 170.422 L 249.500 172.343 250.250 170.422 L 251.000 168.500 250.250 170.422 "/></g>
<g fill="#C1EFE1FF" stroke="#C1EFE1FF">
<path d="M 235.250 160.422 L 234.500 162.343 235.250 160.422 L 236.000 158.500 235.250 160.422 "/></g>
<g fill="#C1EFE1FF" stroke="#C1EFE1FF">
<path d="M 92.950 147.199 C 93.605 148.833 93.892 149.009 93.937 147.809 C 93.971 146.879 93.556 145.844 93.013 145.508 C 92.374 145.113 92.352 145.708 92.950 147.199 "/></g>
<g fill="#C1EFE1FF" stroke="#C1EFE1FF">
<path d="M 248.880 131.161 C 248.652 133.087 248.748 133.183 249.425 131.707 C 249.877 130.721 250.002 129.668 249.701 129.368 C 249.401 129.068 249.031 129.875 248.880 131.161 "/></g>
<g fill="#C1EFE1FF" stroke="#C1EFE1FF">
<path d="M 241.508 46.013 C 241.844 46.556 242.879 46.971 243.809 46.937 C 245.009 46.892 244.833 46.605 243.199 45.950 C 241.708 45.352 241.113 45.374 241.508 46.013 "/></g>
<g fill="#C1EFE1FF" stroke="#C1EFE1FF">
<path d="M 220.872 36.298 C 221.627 37.234 222.740 38.000 223.345 38.000 C 223.950 38.000 223.332 37.234 221.973 36.298 C 219.644 34.695 219.580 34.695 220.872 36.298 "/></g>
<g fill="#C1EFE1FF" stroke="#C1EFE1FF">
<path d="M 169.000 33.888 L 167.500 35.563 169.000 33.888 L 170.500 32.212 169.000 33.888 "/></g>
<g fill="#C1EFE1FF" stroke="#C1EFE1FF">
<path d="M 185.000 33.000 L 187.000 35.000 185.000 33.000 L 183.000 31.000 185.000 33.000 "/></g>
<g fill="#C1EFE1FF" stroke="#C1EFE1FF">
<path d="M 210.417 29.865 C 210.778 30.450 211.845 31.058 212.787 31.215 C 213.868 31.395 213.626 31.002 212.129 30.150 C 210.825 29.408 210.055 29.279 210.417 29.865 "/></g>
<g fill="#C1EFE1FF" stroke="#C1EFE1FF">
<path d="M 195.027 18.702 C 197.356 20.305 197.420 20.305 196.128 18.702 C 195.373 17.766 194.260 17.000 193.655 17.000 C 193.050 17.000 193.668 17.766 195.027 18.702 "/></g>
</svg>
